<?xml version="1.0" standalone="no"?><!DOCTYPE svg PUBLIC "-//W3C//DTD SVG 1.1//EN" "http://www.w3.org/Graphics/SVG/1.1/DTD/svg11.dtd"><svg t="1537405244866" class="icon" style="" viewBox="0 0 1024 1024" version="1.1" xmlns="http://www.w3.org/2000/svg" p-id="10348" xmlns:xlink="http://www.w3.org/1999/xlink" width="200" height="200"><defs><style type="text/css"></style></defs><path d="M799.793 128.258h-31.972V64.304h-63.944v63.954H320.124V64.304H256.18v63.954h-31.974c-70.641 0-127.93 57.28-127.93 127.91v575.618c0 70.643 57.288 127.91 127.93 127.91h575.588c70.642 0 127.93-57.267 127.93-127.91V256.168c0-70.63-57.288-127.91-127.93-127.91z m63.965 703.528c0 35.322-28.625 63.946-63.965 63.946H224.205c-35.34 0-63.965-28.625-63.965-63.946V384.09h703.518v447.696z m0-511.65H160.24v-63.968c0-35.31 28.625-63.954 63.965-63.954h31.974v63.954h63.945v-63.954h383.752v63.954h63.944v-63.954h31.972c35.34 0 63.965 28.643 63.965 63.954v63.967z" fill="#62c3e2" p-id="10349"></path><path d="M288.15 863.757h63.947V767.84h127.93v95.917h63.946V767.84h127.93v95.917h63.944V767.84h63.946v-63.965h-63.946v-127.92h63.946V512h-63.946v-95.939h-63.945V512h-127.93v-95.939h-63.946V512H352.098v-95.939H288.15V512h-63.945v63.955h63.945v127.92h-63.945v63.965h63.945v95.917z m255.823-287.802h127.93v127.92h-127.93v-127.92z m-191.875 0h127.928v127.92H352.098v-127.92z" fill="#62c3e2" p-id="10350"></path></svg>