<?xml version="1.0" standalone="no"?><!DOCTYPE svg PUBLIC "-//W3C//DTD SVG 1.1//EN" "http://www.w3.org/Graphics/SVG/1.1/DTD/svg11.dtd"><svg t="1537405671891" class="icon" style="" viewBox="0 0 1024 1024" version="1.1" xmlns="http://www.w3.org/2000/svg" p-id="12010" xmlns:xlink="http://www.w3.org/1999/xlink" width="200" height="200"><defs><style type="text/css"></style></defs><path d="M133.12 414.72c15.36 10.24 271.36 163.84 296.96 179.2 20.48 10.24 40.96 20.48 61.44 20.48 25.6 0 51.2-15.36 56.32-20.48 40.96-20.48 312.32-163.84 343.04-184.32 25.6-15.36 30.72-35.84 30.72-51.2 0-30.72-25.6-51.2-30.72-56.32-5.12 0-250.88-153.6-291.84-179.2-15.36-10.24-35.84-15.36-51.2-15.36-25.6 0-46.08 10.24-51.2 15.36L128 302.08h-5.12c-15.36 20.48-20.48 40.96-20.48 56.32 0 30.72 25.6 51.2 30.72 56.32z m394.24-235.52s10.24-5.12 20.48-5.12c5.12 0 10.24 0 20.48 5.12 35.84 25.6 250.88 153.6 286.72 179.2-25.6 20.48-194.56 102.4-337.92 179.2 0 0-10.24 5.12-20.48 5.12s-20.48-5.12-30.72-10.24c-30.72-15.36-261.12-153.6-296.96-174.08l358.4-179.2z" fill="#8cb56f" p-id="12011"></path><path d="M885.76 476.16c-10.24 0-15.36 5.12-20.48 5.12-25.6 15.36-194.56 97.28-343.04 179.2l-10.24 5.12c-5.12 0-25.6 10.24-51.2-5.12-30.72-15.36-281.6-163.84-307.2-179.2-5.12 0-10.24-5.12-20.48-5.12-15.36 0-30.72 15.36-30.72 35.84 0 15.36 10.24 25.6 20.48 30.72 15.36 10.24 276.48 163.84 307.2 179.2 20.48 10.24 40.96 20.48 61.44 20.48 25.6 0 46.08-10.24 56.32-20.48 40.96-20.48 312.32-158.72 353.28-184.32 10.24-5.12 20.48-15.36 20.48-30.72-5.12-15.36-20.48-30.72-35.84-30.72z" fill="#8cb56f" p-id="12012"></path><path d="M885.76 609.28c-10.24 0-15.36 5.12-20.48 10.24-10.24 5.12-194.56 97.28-343.04 179.2h-5.12c-5.12 5.12-25.6 10.24-51.2-5.12-30.72-15.36-286.72-163.84-307.2-179.2-10.24-5.12-10.24-5.12-20.48-5.12-15.36 0-30.72 15.36-30.72 30.72s10.24 25.6 20.48 30.72c15.36 10.24 276.48 163.84 307.2 179.2 15.36 10.24 35.84 20.48 56.32 20.48 25.6 0 40.96-10.24 56.32-15.36 40.96-20.48 312.32-153.6 353.28-179.2 10.24-5.12 20.48-15.36 20.48-30.72-5.12-20.48-20.48-35.84-35.84-35.84z" fill="#8cb56f" p-id="12013"></path></svg>