<?xml version="1.0" standalone="no"?><!DOCTYPE svg PUBLIC "-//W3C//DTD SVG 1.1//EN" "http://www.w3.org/Graphics/SVG/1.1/DTD/svg11.dtd"><svg t="1525918125890" class="icon" style="" viewBox="0 0 1024 1024" version="1.1" xmlns="http://www.w3.org/2000/svg" p-id="987" xmlns:xlink="http://www.w3.org/1999/xlink" width="200" height="200"><defs><style type="text/css"></style></defs><path d="M972.8 571.733333c-25.6-42.666667-8.533333-93.866667 34.133333-119.466666l-45.511111-76.8c-14.222222 8.533333-28.444444 11.377778-45.511111 11.377777-48.355556 0-91.022222-39.822222-91.022222-88.177777h-93.866667c0 14.222222-2.844444 31.288889-11.377778 42.666666-25.6 42.666667-79.644444 54.044444-122.311111 31.288889l-45.511111 76.8c14.222222 8.533333 25.6 17.066667 34.133334 31.288889 25.6 42.666667 8.533333 93.866667-34.133334 119.466667l45.511111 76.8c14.222222-8.533333 28.444444-11.377778 45.511111-11.377778 48.355556 0 88.177778 39.822222 91.022223 85.333333H824.888889c0-14.222222 2.844444-28.444444 11.377778-42.666666 25.6-42.666667 79.644444-54.044444 122.311111-31.288889l45.511111-76.8c-11.377778-2.844444-25.6-14.222222-31.288889-28.444445z m-196.266667 48.355556c-54.044444 0-96.711111-42.666667-96.711111-91.022222s42.666667-91.022222 96.711111-91.022223 96.711111 42.666667 96.711111 91.022223-42.666667 91.022222-96.711111 91.022222z" p-id="988"></path><path d="M731.022222 944.355556h-625.777778v-853.333334h625.777778v133.688889h56.888889V34.133333h-739.555555v967.111111h739.555555v-150.755555h-56.888889z" p-id="989"></path><path d="M162.133333 329.955556h341.333334v56.888888h-341.333334zM162.133333 500.622222h341.333334v56.888889h-341.333334zM162.133333 671.288889h341.333334v56.888889h-341.333334z" p-id="990"></path></svg>