<?xml version="1.0" standalone="no"?><!DOCTYPE svg PUBLIC "-//W3C//DTD SVG 1.1//EN" "http://www.w3.org/Graphics/SVG/1.1/DTD/svg11.dtd"><svg class="icon" width="200px" height="200.00px" viewBox="0 0 1024 1024" version="1.1" xmlns="http://www.w3.org/2000/svg"><path d="M0 729.7h33.8V595.8l52.8 116.7c6 14 14.6 19.2 31.2 19.2s24.7-5.2 30.9-19.2l52.5-116.7v133.9h34.1V595.8c0-13-5.2-19.2-16.1-22.6-25.7-7.8-42.9-1-50.7 16.4L116.7 705 66.8 589.6c-7.5-17.4-25-24.2-51-16.4C5.2 576.6 0 582.8 0 595.8v133.9zM263.3 620.8h34.1v73.6c-0.3 4.2 1.3 13.5 19.8 13.8 9.6 0.3 73.3 0 73.8 0v-87.9h34v120.4c0 29.6-36.7 36.1-53.8 36.4H264.1v-22.6h107.4c21.8-2.3 19.2-13.3 19.2-16.9v-8.8h-72c-33.5-0.3-55.1-15.1-55.4-32 0-1.7 0.8-75.5 0-76zM993.8 535.5c-20.8-0.5-36.9 1.6-50.4 7.3-3.9 1.6-10.1 1.6-10.7 6.5 2.1 2.1 2.3 5.5 4.2 8.3 3.1 5.2 8.6 12.2 13.5 15.9 5.5 4.2 10.9 8.3 16.6 12 10.1 6.2 21.6 9.9 31.5 16.1 5.7 3.6 11.4 8.3 17.2 12.2 2.9 2.1 4.7 5.5 8.3 6.8v-0.8c-1.8-2.3-2.3-5.7-4.2-8.3-2.6-2.6-5.2-4.9-7.8-7.5-7.5-10.1-16.9-19-27-26.3-8.3-5.7-26.5-13.5-29.9-23.1l-0.5-0.5c5.7-0.5 12.5-2.6 17.9-4.2 8.8-2.3 16.9-1.8 26-4.2 4.2-1 8.3-2.3 12.5-3.6v-2.3c-4.7-4.7-8.1-10.9-13-15.3-13.3-11.4-27.8-22.6-42.9-32-8.1-5.2-18.5-8.6-27-13-3.1-1.6-8.3-2.3-10.1-4.9-4.7-5.7-7.3-13.3-10.7-20-7.5-14.3-14.8-30.2-21.3-45.2-4.7-10.1-7.5-20.3-13.3-29.6-26.8-44.2-55.9-71-100.6-97.2-9.6-5.5-21.1-7.8-33.3-10.7-6.5-0.3-13-0.8-19.5-1-4.2-1.8-8.3-6.8-12-9.1-14.8-9.4-53-29.6-64-2.9-7 16.9 10.4 33.5 16.4 42.1 4.4 6 10.1 12.7 13.3 19.5 1.8 4.4 2.3 9.1 4.2 13.8 4.2 11.4 8.1 24.2 13.5 34.8 2.9 5.5 6 11.2 9.6 16.1 2.1 2.9 5.7 4.2 6.5 8.8-3.6 5.2-3.9 13-6 19.5-9.4 29.4-5.7 65.8 7.5 87.3 4.2 6.5 14 20.8 27.3 15.3 11.7-4.7 9.1-19.5 12.5-32.5 0.8-3.1 0.3-5.2 1.8-7.3v0.5c3.6 7.3 7.3 14.3 10.7 21.6 8.1 12.7 22.1 26 33.8 34.8 6.2 4.7 11.2 12.7 19 15.6v-0.8h-0.5c-1.6-2.3-3.9-3.4-6-5.2-4.7-4.7-9.9-10.4-13.5-15.6-10.9-14.6-20.5-30.7-29.1-47.3-4.2-8.1-7.8-16.9-11.2-25-1.6-3.1-1.6-7.8-4.2-9.4-3.9 5.7-9.6 10.7-12.5 17.7-4.9 11.2-5.5 25-7.3 39.3-1 0.3-0.5 0-1 0.5-8.3-2.1-11.2-10.7-14.3-17.9-7.8-18.5-9.1-48.1-2.3-69.4 1.8-5.5 9.6-22.6 6.5-27.8-1.6-4.9-6.8-7.8-9.6-11.7-3.4-4.9-7-11.2-9.4-16.6-6.2-14.6-9.4-30.7-16.1-45.2-3.1-6.8-8.6-13.8-13-20-4.9-7-10.4-12-14.3-20.3-1.3-2.9-3.1-7.5-1-10.7 0.5-2.1 1.6-2.9 3.6-3.4 3.4-2.9 13 0.8 16.4 2.3 9.6 3.9 17.7 7.5 25.7 13 3.6 2.6 7.5 7.5 12.2 8.8h5.5c8.3 1.8 17.7 0.5 25.5 2.9 13.8 4.4 26.3 10.9 37.4 17.9 34 21.6 62.1 52.3 81.1 88.9 3.1 6 4.4 11.4 7.3 17.7 5.5 12.7 12.2 25.7 17.7 38.2 5.5 12.2 10.7 24.7 18.5 34.8 3.9 5.5 19.5 8.3 26.5 11.2 5.2 2.3 13.3 4.4 17.9 7.3 8.8 5.5 17.7 11.7 26 17.7 4.2 3.1 17.2 9.6 17.9 14.8z" fill="#006694" /><path d="M728.7 309.6c-4.4 0-7.5 0.5-10.7 1.3v0.5h0.5c2.1 4.2 5.7 7 8.3 10.7 2.1 4.2 3.9 8.3 6 12.5l0.5-0.5c3.6-2.6 5.5-6.8 5.5-13-1.6-1.8-1.8-3.6-3.1-5.5-1.6-2.6-4.9-3.9-7-6z" fill="#006694" /><path d="M451 729.7h97.7c11.4 0 22.4-2.3 31.2-6.5 14.8-6.8 21.8-15.9 21.8-27.8v-25c0-9.6-8.1-18.7-24.2-25-8.3-3.1-18.7-4.9-28.9-4.9h-41.1c-13.8 0-20.3-4.2-22.1-13.3-0.3-1-0.3-2.1-0.3-3.1v-15.3c0-0.8 0-1.8 0.3-2.9 1.8-7 5.5-8.8 17.4-10.1h100.1v-22.6H508c-13.8 0-21.1 0.8-27.6 2.9-20 6.2-28.9 16.1-28.9 33.5v19.8c0 15.3 17.2 28.3 46.3 31.5 3.1 0.3 6.5 0.3 9.9 0.3h35.1c1.3 0 2.6 0 3.6 0.3 10.7 1 15.3 2.9 18.5 6.8 2.1 2.1 2.6 3.9 2.6 6.2v19.8c0 2.3-1.6 5.5-4.7 8.1-3.1 2.6-8.1 4.4-14.6 4.7-1.3 0-2.1 0.3-3.4 0.3H451v22.3zM813.4 690.4c0 23.1 17.4 36.1 52.3 38.7 3.4 0.3 6.5 0.5 9.9 0.5H964V707h-89.2c-19.8 0-27.3-4.9-27.3-16.9v-117h-34.1v117.3zM623.4 691.5v-80.6c0-20.5 14.6-33 42.9-36.9 3.1-0.3 6.2-0.5 9.1-0.5h64.5c3.4 0 6.2 0.3 9.6 0.5 28.3 3.9 42.6 16.4 42.6 36.9v80.6c0 16.6-6 25.5-20 31.5l33.3 30.2h-39.3l-27-24.4-27.3 1.6h-36.4c-6 0-12.7-0.8-19.8-2.6-21.5-6.2-32.2-17.6-32.2-36.3z m36.6-1.9c0 1 0.5 2.1 0.8 3.4 1.8 9.4 10.7 14.6 24.2 14.6h30.7l-28.1-25.5h39.2l24.7 22.4c4.7-2.6 7.5-6.2 8.6-10.9 0.3-1 0.3-2.3 0.3-3.4V613c0-1 0-2.1-0.3-3.1-1.8-8.8-10.7-13.8-23.9-13.8H685c-15.1 0-25 6.5-25 16.9v76.6zM979.6 729.9h4.9v-19h6.5V707h-18.2v3.9h6.8v19z m37.6 0h4.7V707h-7l-5.7 15.6-6.2-15.6h-6.8v22.9h4.4v-17.4h0.3l6.5 17.4h3.4l6.5-17.4v17.4z" fill="#e69500" /></svg>