<?xml version="1.0" standalone="no"?><!DOCTYPE svg PUBLIC "-//W3C//DTD SVG 1.1//EN" "http://www.w3.org/Graphics/SVG/1.1/DTD/svg11.dtd"><svg t="1533793460843" class="icon" style="" viewBox="0 0 1024 1024" version="1.1" xmlns="http://www.w3.org/2000/svg" p-id="4414" xmlns:xlink="http://www.w3.org/1999/xlink" width="200" height="200"><defs><style type="text/css"></style></defs><path d="M924.16 64h-824.32C45.056 64 0 108.544 0 163.84v568.32c0 55.296 45.056 99.84 99.84 99.84h379.904V896h-256c-17.92 0-31.744 14.336-31.744 31.744s14.336 31.744 31.744 31.744h576c17.92 0 31.744-14.336 31.744-31.744s-14.336-31.744-31.744-31.744h-256v-64h379.904c55.296 0 99.84-45.056 99.84-99.84V163.84c0.512-55.296-44.544-99.84-99.328-99.84z m35.84 668.16c0 19.968-16.384 35.84-35.84 35.84h-824.32c-19.968 0-35.84-15.872-35.84-35.84V163.84c0-19.968 15.872-35.84 35.84-35.84h823.808c19.968 0 35.84 16.384 35.84 35.84l0.512 568.32z" fill="" p-id="4415"></path><path d="M569.344 461.824c-7.68-7.68-11.264-13.824-7.168-26.112 22.528-64 2.048-129.536-53.76-168.96-35.328-24.576-74.24-31.744-117.76-18.944 16.384 18.944 34.304 34.816 51.712 51.712 33.792 33.28 34.304 74.752 2.048 105.984-31.232 30.72-72.704 29.696-104.96-3.072-16.896-16.896-33.28-34.816-49.664-52.224-2.048 1.024-4.096 2.56-6.144 3.584-9.728 52.224 2.56 98.816 41.472 136.704 41.984 39.936 91.648 51.2 146.944 32.768 13.824-4.608 21.504-2.048 31.232 7.68 40.96 41.472 115.2 112.128 156.672 152.576 19.968 19.456 45.056 20.48 65.024 3.072 24.576-21.504 26.112-49.664 2.048-73.216-41.472-40.448-116.224-110.592-157.696-151.552m120.32 207.872c-12.8 0-23.04-10.24-23.04-23.04s10.24-23.04 23.04-23.04 23.04 10.24 23.04 23.04-10.24 23.04-23.04 23.04" fill="" p-id="4416"></path></svg>