<?xml version="1.0" standalone="no"?><!DOCTYPE svg PUBLIC "-//W3C//DTD SVG 1.1//EN" "http://www.w3.org/Graphics/SVG/1.1/DTD/svg11.dtd"><svg t="1537404337720" class="icon" style="" viewBox="0 0 1024 1024" version="1.1" xmlns="http://www.w3.org/2000/svg" p-id="6584" xmlns:xlink="http://www.w3.org/1999/xlink" width="200" height="200"><defs><style type="text/css"></style></defs><path d="M512 0C274.618182 0 93.090909 93.090909 93.090909 209.454545v605.09091C93.090909 930.909091 274.618182 1024 512 1024s418.909091-93.090909 418.909091-209.454545v-605.09091C930.909091 93.090909 749.381818 0 512 0z m0 51.2c218.763636 0 372.363636 83.781818 372.363636 158.254545s-153.6 158.254545-372.363636 158.254546-372.363636-83.781818-372.363636-158.254546 153.6-158.254545 372.363636-158.254545zM884.363636 651.636364c-37.236364 74.472727-190.836364 134.981818-372.363636 134.981818-181.527273 0-335.127273-60.509091-372.363636-134.981818v-144.290909c65.163636 69.818182 204.8 116.363636 372.363636 116.363636 167.563636 0 307.2-46.545455 372.363636-116.363636V651.636364z m-372.363636 321.163636c-218.763636 0-372.363636-83.781818-372.363636-158.254545v-111.709091c65.163636 69.818182 204.8 116.363636 372.363636 116.363636 167.563636 0 307.2-46.545455 372.363636-116.363636v111.709091c0 74.472727-153.6 158.254545-372.363636 158.254545z m372.363636-521.309091c-37.236364 74.472727-190.836364 134.981818-372.363636 134.981818-181.527273 0-335.127273-60.509091-372.363636-134.981818V307.2C209.454545 372.363636 349.090909 418.909091 512 418.909091s302.545455-46.545455 372.363636-111.709091v144.290909z" fill="#eb8a5a" p-id="6585"></path><path d="M814.545455 409.6c-13.963636 0-27.927273 9.309091-27.927273 23.272727s9.309091 27.927273 27.927273 27.927273c13.963636 0 27.927273-13.963636 27.927272-27.927273-4.654545-13.963636-13.963636-23.272727-27.927272-23.272727zM786.618182 633.018182zM814.545455 609.745455c-13.963636 0-27.927273 9.309091-27.927273 23.272727s9.309091 27.927273 23.272727 27.927273 27.927273-13.963636 27.927273-27.927273-9.309091-23.272727-23.272727-23.272727zM814.545455 800.581818c-13.963636 0-27.927273 9.309091-27.927273 23.272727s9.309091 27.927273 23.272727 27.927273 27.927273-9.309091 27.927273-23.272727-9.309091-27.927273-23.272727-27.927273z" fill="#eb8a5a" p-id="6586"></path></svg>