<?xml version="1.0" standalone="no"?><!DOCTYPE svg PUBLIC "-//W3C//DTD SVG 1.1//EN" "http://www.w3.org/Graphics/SVG/1.1/DTD/svg11.dtd"><svg t="1561363455488" class="icon" viewBox="0 0 1024 1024" version="1.1" xmlns="http://www.w3.org/2000/svg" p-id="3057" xmlns:xlink="http://www.w3.org/1999/xlink" width="128" height="128"><defs><style type="text/css"></style></defs><path d="M941.5 338.6c-10.2 0-18.5 7.8-18.5 17.4v512H820V473.6c0-9.5-8.3-17.3-18.5-17.3S783 464 783 473.6V868H681V656.6c0-9.5-8.3-17.3-18.5-17.3S644 647 644 656.6V868H541V740.8c0-9.5-8.3-17.3-18.5-17.3s-18.5 7.7-18.5 17.3V868H401V710.9c0-9.5-8.3-17.3-18.5-17.3s-18.5 7.7-18.5 17.3V868H262v-16.7c0-9.5-8.3-17.3-18.5-17.3s-18.5 7.7-18.5 17.3V868h-80l248.8-338.4 144.5 83.8c12.6 7.3 29.3 4.2 37.8-7.2l312-414.5 12.6 61.1c2.6 12.5 14.3 21.1 27.5 21.1 1.7 0 3.5-0.2 5.3-0.5 15.2-2.7 25.2-16.3 22.2-30.4l-24.6-119.6c-1.4-6.8-5.6-12.8-11.8-16.6-6.1-3.9-13.7-5.3-21-4l-128.7 22.9c-15.2 2.7-25.1 16.3-22.2 30.4 2.9 14.1 17.5 23.4 32.8 20.7l58.8-10.5-293.5 390-144.8-84c-12.7-7.4-29.5-4.1-37.9 7.4L120 809.8V127.2c0-14.4-12.5-26-28-26s-28 11.6-28 26V894c0 0.3 0.1 0.6 0.1 1 0.1 1.4 0.2 2.7 0.4 4.1 0.2 0.8 0.5 1.5 0.7 2.3 0.3 0.9 0.5 1.7 0.9 2.6 0.3 0.8 0.8 1.5 1.2 2.2 0.4 0.8 0.8 1.6 1.3 2.3 0.5 0.7 1.1 1.3 1.7 1.9 0.6 0.7 1.1 1.4 1.8 2 0.9 0.9 1.9 1.6 2.9 2.3 0.4 0.3 0.7 0.6 1.2 0.9h0.1c0.1 0.1 0.3 0.2 0.5 0.3 1.2 0.7 2.5 1.4 3.9 1.9 0.4 0.2 0.9 0.3 1.4 0.5 1.1 0.4 2.3 0.8 3.5 1l1.5 0.3c1.7 0.3 3.3 0.5 5 0.5H930c10.4 0 19.3-5.4 24.1-13.3 3.7-3.2 6-7.7 6-12.7V356c-0.1-9.6-8.4-17.4-18.6-17.4z" p-id="3058"></path></svg>