<?xml version="1.0" standalone="no"?><!DOCTYPE svg PUBLIC "-//W3C//DTD SVG 1.1//EN" "http://www.w3.org/Graphics/SVG/1.1/DTD/svg11.dtd"><svg t="1525932519239" class="icon" style="" viewBox="0 0 1024 1024" version="1.1" xmlns="http://www.w3.org/2000/svg" p-id="8497" xmlns:xlink="http://www.w3.org/1999/xlink" width="200" height="200"><defs><style type="text/css"></style></defs><path d="M554.666667 768h42.666666a42.666667 42.666667 0 0 1 42.666667 42.666667h298.666667v85.333333h-298.666667a42.666667 42.666667 0 0 1-42.666667 42.666667h-170.666666a42.666667 42.666667 0 0 1-42.666667-42.666667H85.333333v-85.333333h298.666667a42.666667 42.666667 0 0 1 42.666667-42.666667h42.666666v-85.333333H341.333333a42.666667 42.666667 0 0 1-42.666666-42.666667V128a42.666667 42.666667 0 0 1 42.666666-42.666667h341.333334a42.666667 42.666667 0 0 1 42.666666 42.666667v512a42.666667 42.666667 0 0 1-42.666666 42.666667h-128v85.333333m0-512h42.666666V170.666667h-42.666666v85.333333M384 170.666667v85.333333h85.333333V170.666667H384m0 170.666666v85.333334h85.333333V341.333333H384m0 170.666667v85.333333h85.333333v-85.333333H384z" fill="" p-id="8498"></path></svg>