<?xml version="1.0" standalone="no"?><!DOCTYPE svg PUBLIC "-//W3C//DTD SVG 1.1//EN" "http://www.w3.org/Graphics/SVG/1.1/DTD/svg11.dtd"><svg t="1543282809683" class="icon" style="" viewBox="0 0 1024 1024" version="1.1" xmlns="http://www.w3.org/2000/svg" p-id="9686" xmlns:xlink="http://www.w3.org/1999/xlink" width="200" height="200"><defs><style type="text/css"></style></defs><path d="M0 0h917.333333a106.666667 106.666667 0 0 1 106.666667 106.666667v917.333333L0 0z m766.464 346.389333l-0.170667-0.170666a550.357333 550.357333 0 0 1 81.898667-75.008c0.170667 1.408-3.264-28.074667-6.016-54.186667-1.813333-19.008-2.346667-38.122667-1.536-57.194667a900.608 900.608 0 0 0-103.018667 114.56 1051.093333 1051.093333 0 0 0-70.72 117.184 365.162667 365.162667 0 0 1-30.037333-35.285333c-10.24-13.44-19.818667-27.413333-28.672-41.834667-11.669333 9.984-24.256 18.794667-37.589333 26.282667-13.482667 7.594667-27.562667 14.037333-42.069334 19.242667 0 0 39.146667 26.666667 70.741334 52.949333 24.106667 20.48 46.762667 42.730667 67.797333 66.56a1328.085333 1328.085333 0 0 1 99.413333-133.098667z" fill="#48B660" p-id="9687"></path></svg>