<?xml version="1.0" standalone="no"?><!DOCTYPE svg PUBLIC "-//W3C//DTD SVG 1.1//EN" "http://www.w3.org/Graphics/SVG/1.1/DTD/svg11.dtd"><svg t="1557207592977" class="icon" style="" viewBox="0 0 1024 1024" version="1.1" xmlns="http://www.w3.org/2000/svg" p-id="31250" xmlns:xlink="http://www.w3.org/1999/xlink" width="128" height="128"><defs><style type="text/css"></style></defs><path d="M128 192h768v704H128z" fill="#E8F2FF" p-id="31251"></path><path d="M64 896V192a64 64 0 0 1 64-64h768a64 64 0 0 1 64 64v704a64 64 0 0 1-64 64H128a64 64 0 0 1-64-64z m64-192v192h768v-192H128z m0-64h768V448H128v192z m0-256h768V192H128v192z m96-128a32 32 0 1 1 0 64 32 32 0 0 1 0-64z m0 256a32 32 0 1 1 0 64 32 32 0 0 1 0-64z m0 256a32 32 0 1 1 0 64 32 32 0 0 1 0-64z m128-512h128a32 32 0 0 1 0 64h-128a32 32 0 0 1 0-64z m0 256h128a32 32 0 0 1 0 64h-128a32 32 0 0 1 0-64z m0 256h128a32 32 0 1 1 0 64h-128a32 32 0 1 1 0-64z" fill="#4A90E2" p-id="31252"></path><path d="M448 512h512v448H448z" fill="#E8F2FF" p-id="31253"></path><path d="M537.024 756.352c0-41.984 6.272-77.248 18.88-105.728 9.344-20.992 22.144-39.872 38.4-56.512 16.192-16.704 33.92-29.056 53.248-37.12 25.728-10.88 55.296-16.32 88.896-16.32 60.8 0 109.376 18.816 145.792 56.512 36.48 37.696 54.72 90.112 54.72 157.248 0 66.56-18.112 118.592-54.272 156.16-36.16 37.632-84.544 56.448-145.152 56.448-61.312 0-110.08-18.688-146.24-56.128-36.16-37.376-54.272-88.96-54.272-154.56z m85.76-2.816c0 46.72 10.816 82.112 32.384 106.24 21.568 24.064 48.896 36.096 82.112 36.096 33.216 0 60.416-11.968 81.728-35.84 21.248-23.936 31.872-59.776 31.872-107.584 0-47.232-10.304-82.56-31.04-105.792-20.736-23.232-48.256-34.816-82.56-34.816s-61.952 11.712-82.944 35.264c-20.992 23.552-31.552 59.008-31.552 106.432z" fill="#32C3E9" p-id="31254"></path></svg>