<?xml version="1.0" standalone="no"?><!DOCTYPE svg PUBLIC "-//W3C//DTD SVG 1.1//EN" "http://www.w3.org/Graphics/SVG/1.1/DTD/svg11.dtd"><svg class="icon" width="200px" height="200.00px" viewBox="0 0 1024 1024" version="1.1" xmlns="http://www.w3.org/2000/svg"><path d="M588.8 611.328h-68.266667a12.8 12.8 0 1 1 0-25.6h68.266667a12.8 12.8 0 0 1 0 25.6z m-153.6 0a12.8 12.8 0 0 1-12.8-12.8v-68.266667a12.8 12.8 0 0 1 25.6 0v68.266667a12.8 12.8 0 0 1-12.8 12.8z m153.6-85.333333a12.8 12.8 0 0 1-12.8-12.8v-68.266667a12.8 12.8 0 1 1 25.6 0v68.266667a12.8 12.8 0 0 1-12.8 12.8z m-85.333333-68.266667h-68.266667a12.8 12.8 0 0 1 0-25.6h68.266667a12.8 12.8 0 0 1 0 25.6z" fill="#dd6572" /><path d="M742.4 626.944V349.866667a68.266667 68.266667 0 0 0-68.266667-68.266667H162.133333a68.266667 68.266667 0 0 0-68.266666 68.266667v512a68.266667 68.266667 0 0 0 68.266666 68.266666h512a68.266667 68.266667 0 0 0 68.266667-68.266666 68.266667 68.266667 0 0 0-68.266667-68.266667v68.266667H162.133333V349.866667h512v209.066666a68.266667 68.266667 0 0 0 68.266667 68.266667z" fill="#1296db" /><path d="M281.6 397.056V674.133333a68.266667 68.266667 0 0 0 68.266667 68.266667h512a68.266667 68.266667 0 0 0 68.266666-68.266667V162.133333a68.266667 68.266667 0 0 0-68.266666-68.266666H349.866667a68.266667 68.266667 0 0 0-68.266667 68.266666 68.266667 68.266667 0 0 0 68.266667 68.266667v-68.266667h512v512H349.866667V465.322667a68.266667 68.266667 0 0 0-68.266667-68.266667z" fill="#13227a" /></svg>