<?xml version="1.0" standalone="no"?><!DOCTYPE svg PUBLIC "-//W3C//DTD SVG 1.1//EN" "http://www.w3.org/Graphics/SVG/1.1/DTD/svg11.dtd"><svg t="1563200405022" class="icon" viewBox="0 0 1024 1024" version="1.1" xmlns="http://www.w3.org/2000/svg" p-id="6941" xmlns:xlink="http://www.w3.org/1999/xlink" width="128" height="128"><defs><style type="text/css"></style></defs><path d="M600.718222 524.657778c-11.946667 3.783111-22.528 8.419556-31.317333 13.909333l-1.735111-19.171555c-11.264 3.413333-22.499556 6.855111-33.450667 10.922666-0.625778 0.312889-3.413333 1.251556-7.822222 2.503111 2.503111 16.270222 3.441778 32.824889 2.503111 49.379556 4.323556-2.275556 8.391111-4.551111 12.231111-6.826667a45.568 45.568 0 0 0-0.682667 8.021334v28.871111c-4.864 2.503111-9.955556 4.977778-15.303111 7.452444-2.190222 13.141333-5.006222 26.88-9.045333 40.647111-5.973333 21.560889-18.460444 52.821333-37.205333 94.407111 13.112889 0.938667 25.941333 1.564444 38.115555 1.564445 8.789333 0 16.611556-2.645333 23.438222-7.964445v24.291556c0 3.584 0.398222 7.025778 1.166223 10.325333-7.509333 2.446222-15.701333 3.669333-24.576 3.669334-16.896 0-34.417778-0.625778-52.224-2.190223-0.284444 0.625778-0.625778 1.564444-0.938667 2.190223l-5.916444-2.844445c-125.354667-11.235556-258.844444-56.547556-258.844445-114.062222 0-19.057778 14.705778-36.266667 40.647111-54.101333 28.444444-19.370667 71.566222-39.68 125.667556-60.302223 60.017778-107.548444 59.392-181.333333 1.848889-225.706666-32.170667-5.944889-46.876444-13.454222-53.134223-30.008889-9.671111-25.628444 20.963556-42.837333 73.784889-58.453334 42.808889-12.515556 82.830222-18.147556 96.910223-9.386666 13.738667 8.760889 32.824889 39.082667 61.582222 95.345778l4.664889 0.938666c169.443556 35.328 282.908444 76.885333 272.583111 119.409778-4.664889 19.370667-23.751111 26.254222-70.314667 34.389333-0.625778 0-73.159111 11.861333-98.474667 16.554667-18.773333 3.441778-37.205333 7.509333-55.637333 12.202667l1.479111 14.023111z m-155.904 226.986666c20.935111-45.027556 34.389333-78.165333 40.021334-99.413333 1.564444-5.632 3.128889-11.548444 4.352-17.180444-25.6 9.984-51.569778 18.773333-78.136889 26.567111-12.515556 23.125333-28.444444 48.128-47.815111 75.320889 26.254222 6.257778 54.044444 11.264 81.578666 14.705777z m-114.403555-23.438222c12.515556-17.521778 24.689778-35.328 36.238222-53.475555a2615.978667 2615.978667 0 0 1-105.642667 26.282666c17.180444 9.671111 41.585778 19.057778 69.404445 27.192889z m-97.848889-53.76c59.704889-13.141333 111.900444-26.282667 156.615111-39.395555 12.8-24.689778 20.622222-46.279111 24.376889-64.711111-11.576889 4.067556-23.125333 8.448-34.702222 12.8-52.508444 20.024889-93.468444 39.395556-119.722667 57.230222-18.432 12.515556-27.192889 23.125333-27.192889 29.383111-0.312889 1.564444 0 3.128889 0.625778 4.664889z m214.755555-115.996444c-1.251556 18.773333-6.883556 40.021333-16.583111 63.772444 21.902222-7.196444 43.776-14.990222 65.024-24.064a251.079111 251.079111 0 0 0-0.284444-55.324444c-6.257778 1.877333-11.889778 3.754667-16.270222 5.319111-10.951111 3.128889-21.560889 6.855111-31.886223 10.296889z m19.370667-301.340445c1.564444 0.938667 0.312889 0.625778-2.190222 0.625778a138.808889 138.808889 0 0 0-17.180445 1.564445c-16.896 2.503111-33.137778 6.257778-49.408 10.951111-17.806222 5.319111-33.422222 11.235556-43.434666 16.867555-2.816 1.564444-5.319111 3.128889-6.883556 4.693334 5.006222 3.413333 17.834667 6.883556 43.463111 10.638222 9.045333 1.251556 53.76 7.480889 66.901334 9.386666 16.554667 2.474667 32.483556 4.977778 48.440888 7.793778-19.996444-37.205333-34.076444-58.766222-39.708444-62.520889z m93.468444 181.617778a487.253333 487.253333 0 0 0-52.508444-10.296889c-10.638222 35.299556-21.902222 64.995556-34.076444 89.088 12.515556-4.067556 30.634667-9.699556 41.244444-13.141333a845.226667 845.226667 0 0 0 45.340444-65.649778z m16.270223-27.505778c7.480889-13.738667 14.677333-27.505778 20.935111-41.244444a1885.098667 1885.098667 0 0 0-70.343111-15.36c-3.413333 14.705778-6.883556 29.411556-10.922667 44.088889 18.432 2.844444 38.741333 6.883556 60.302222 12.515555z m-133.802667 15.928889c-1.877333 33.137778-12.8 70.343111-32.512 111.303111 5.632-1.877333 11.264-3.754667 16.896-5.944889 17.180444-23.438222 33.109333-59.392 47.786667-107.235555a171.690667 171.690667 0 0 0-32.170667 1.905778z m-0.938667-30.606222a233.784889 233.784889 0 0 1 41.898667-1.251556c4.067556-14.705778 7.793778-30.008889 11.548444-46.592-14.051556-2.503111-28.131556-4.693333-42.183111-6.542222-6.257778-0.967111-20.337778-2.844444-34.076444-4.693333 12.174222 17.180444 19.683556 37.176889 22.812444 59.079111z m271.957334 60.956444c18.773333-3.128889 33.450667-5.319111 33.450666-5.319111 26.254222-4.693333 40.334222-9.073778 43.776-10.638222-1.877333-2.503111-5.632-5.632-10.951111-9.073778-11.889778-7.480889-30.321778-16.241778-54.698666-25.002666-26.88-9.984-60.017778-19.996444-96.597334-29.383111-6.257778 14.08-13.454222 28.16-20.935111 42.211555 32.199111 9.671111 67.185778 21.902222 105.642667 36.892445l0.312889 0.284444z m-59.392 9.984a1020.728889 1020.728889 0 0 0-61.895111-19.996444c-8.135111 13.425778-16.867556 26.88-26.254223 40.647111a948.622222 948.622222 0 0 1 88.177778-20.650667z" fill="#4ABC99" p-id="6942"></path><path d="M696.888889 540.444444c-70.684444 0-128 18.858667-128 42.097778v33.678222c0 23.267556 57.315556 42.097778 128 42.097778s128-18.830222 128-42.097778V582.542222c0-23.239111-57.315556-42.097778-128-42.097778z m0 143.160889c-70.684444 0-128-18.858667-128-42.097777v50.517333c0 23.239111 57.315556 42.097778 128 42.097778s128-18.858667 128-42.097778v-50.517333c0 23.239111-57.315556 42.097778-128 42.097777z m0 75.776c-70.684444 0-128-18.830222-128-42.097777v50.517333c0 23.267556 57.315556 42.097778 128 42.097778s128-18.830222 128-42.097778v-50.517333c0 23.267556-57.315556 42.097778-128 42.097777z" fill="#4ABC99" p-id="6943"></path></svg>