<?xml version="1.0" standalone="no"?><!DOCTYPE svg PUBLIC "-//W3C//DTD SVG 1.1//EN" "http://www.w3.org/Graphics/SVG/1.1/DTD/svg11.dtd"><svg t="1543301548101" class="icon" style="" viewBox="0 0 1024 1024" version="1.1" xmlns="http://www.w3.org/2000/svg" p-id="18452" xmlns:xlink="http://www.w3.org/1999/xlink" width="200" height="200"><defs><style type="text/css"></style></defs><path d="M512 659.4816c281.51296 0 509.7216 72.64256 509.7216 162.25792 0 89.6-228.20352 162.23232-509.7216 162.23232-281.50784 0-509.7216-72.63232-509.7216-162.23232 0-89.62048 228.21376-162.25792 509.7216-162.25792z" fill="#2690FC" p-id="18453"></path><path d="M2.2784 644.73088h1019.43808v191.73888H2.2784z" fill="#1A8FFF" p-id="18454"></path><path d="M512 482.50368c281.51296 0 509.7216 72.6272 509.7216 162.24768 0 89.6-228.20352 162.24256-509.7216 162.24256-281.50784 0-509.7216-72.64256-509.7216-162.24256 0-89.62048 228.21376-162.24768 509.7216-162.24768z" fill="#027AEC" p-id="18455"></path><path d="M512 438.26688c281.51296 0 509.7216 72.63744 509.7216 162.21696 0 89.6-228.20352 162.24256-509.7216 162.24256-281.50784 0-509.7216-72.64256-509.7216-162.24256 0-89.57952 228.21376-162.21696 509.7216-162.21696z" fill="#1A8FFF" p-id="18456"></path><path d="M2.2784 442.38336h1019.43808v191.72352H2.2784z" fill="#1A8FFF" p-id="18457"></path><path d="M2.2784 423.51104a509.7216 162.23232 0 1 0 1019.4432 0 509.7216 162.23232 0 1 0-1019.4432 0Z" fill="#027AEC" p-id="18458"></path><path d="M2.2784 379.25376a509.7216 162.23744 0 1 0 1019.4432 0 509.7216 162.23744 0 1 0-1019.4432 0Z" fill="#2690FC" p-id="18459"></path><path d="M2.2784 202.2656h1019.43808v191.73376H2.2784z" fill="#2690FC" p-id="18460"></path><path d="M2.2784 202.27072a509.7216 162.24256 0 1 0 1019.4432 0 509.7216 162.24256 0 1 0-1019.4432 0Z" fill="#81C1FD" p-id="18461"></path></svg>