<?xml version="1.0" standalone="no"?><!DOCTYPE svg PUBLIC "-//W3C//DTD SVG 1.1//EN" "http://www.w3.org/Graphics/SVG/1.1/DTD/svg11.dtd"><svg t="1525918242096" class="icon" style="" viewBox="0 0 1024 1024" version="1.1" xmlns="http://www.w3.org/2000/svg" p-id="1677" xmlns:xlink="http://www.w3.org/1999/xlink" width="200" height="200"><defs><style type="text/css"></style></defs><path d="M651.377778 790.755556h-284.444445v142.222222h-256v56.888889h796.444445v-56.888889h-256zM913.066667 22.755556H108.088889C62.577778 22.755556 25.6 56.888889 25.6 99.555556V625.777778c0 42.666667 36.977778 79.644444 79.644444 79.644444H910.222222c45.511111 0 79.644444-34.133333 79.644445-79.644444V99.555556C992.711111 56.888889 958.577778 22.755556 913.066667 22.755556zM938.666667 625.777778c0 14.222222-11.377778 25.6-25.6 25.6H108.088889c-14.222222 0-25.6-11.377778-25.6-25.6V99.555556c0-14.222222 11.377778-25.6 25.6-25.6h804.977778c14.222222 0 25.6 11.377778 25.6 25.6V625.777778z" p-id="1678"></path><path d="M509.155556 136.533333c-62.577778 0-119.466667 25.6-159.288889 68.266667L281.6 136.533333v170.666667H455.111111l-62.577778-62.577778c31.288889-31.288889 73.955556-51.2 119.466667-51.2 93.866667 0 170.666667 76.8 170.666667 170.666667h56.888889c-2.844444-128-102.4-227.555556-230.4-227.555556zM671.288889 420.977778h-105.244445l62.577778 62.577778c-31.288889 31.288889-73.955556 51.2-119.466666 51.2-93.866667 0-170.666667-76.8-170.666667-170.666667h-56.888889c0 125.155556 102.4 227.555556 227.555556 227.555555 62.577778 0 119.466667-25.6 159.288888-68.266666l68.266667 68.266666v-170.666666h-65.422222z" p-id="1679"></path></svg>