<?xml version="1.0" standalone="no"?><!DOCTYPE svg PUBLIC "-//W3C//DTD SVG 1.1//EN" "http://www.w3.org/Graphics/SVG/1.1/DTD/svg11.dtd"><svg t="1561359530074" class="icon" viewBox="0 0 1024 1024" version="1.1" xmlns="http://www.w3.org/2000/svg" p-id="2441" xmlns:xlink="http://www.w3.org/1999/xlink" width="128" height="128"><defs><style type="text/css"></style></defs><path d="M621.77684543 70.82135703H401.67081824c-30.3784981 0-54.95746475 24.57896666-54.95746476 54.95746476v769.81875885c0 30.3784981 24.57896666 54.95746475 54.95746476 54.95746476h219.9679431c30.3784981 0 54.95746475-24.57896666 54.95746476-54.95746476V125.77882179c0-30.3784981-24.44088257-54.95746475-54.81938067-54.95746476z m-55.09554884 769.95684294H456.76636708v-54.95746477h110.0530136v54.95746477z m0-110.0530136H456.76636708v-54.95746475h110.0530136v54.95746475z m0-110.0530136H456.76636708v-54.95746476h110.0530136v54.95746476z m0-109.91492952H456.76636708v-54.95746474h110.0530136v54.95746474z m-345.21020576-50.40069003c2.76168163 0 5.10911105 2.20934532 5.10911104 5.10911105v431.09850495c0 2.76168163-2.20934532 5.10911105-5.10911104 5.10911105h-136.97940965c-2.76168163 0-5.10911105-2.20934532-5.10911105-5.10911105V465.32758018c0-2.76168163 2.20934532-5.10911105 5.10911105-5.10911104l136.97940965 0.13808408m0-50.95302637h-136.97940965c-30.93083443 0-55.92405333 25.13130297-55.92405333 55.92405333v431.09850496c0 30.93083443 25.13130297 55.92405333 55.92405333 55.92405333h136.97940965c30.93083443 0 55.92405333-25.13130297 55.92405333-55.92405333V465.32758018c-0.13808409-30.93083443-24.9932189-55.92405333-55.92405333-55.92405333z m717.48489166-54.12896027v541.28960264l-137.11749374-0.13808408 0.13808408-541.15151856h136.97940966m0-55.78596925H801.97657283c-30.93083443 0-55.92405333 25.13130297-55.92405333 55.92405334v541.01343447c0 30.93083443 25.13130297 55.92405333 55.92405333 55.92405333h136.97940966c30.93083443 0 55.92405333-25.13130297 55.92405333-55.92405333V355.41265067c0-30.93083443-24.9932189-55.92405333-55.92405333-55.92405334z m0 0" p-id="2442"></path></svg>