<?xml version="1.0" standalone="no"?><!DOCTYPE svg PUBLIC "-//W3C//DTD SVG 1.1//EN" "http://www.w3.org/Graphics/SVG/1.1/DTD/svg11.dtd"><svg t="1525858630324" class="icon" style="" viewBox="0 0 1024 1024" version="1.1" xmlns="http://www.w3.org/2000/svg" p-id="4644" xmlns:xlink="http://www.w3.org/1999/xlink" width="200" height="200"><defs><style type="text/css"></style></defs><path d="M448.027988 191.020429c-211.939277 0-383.832073 43.053164-383.832073 96.085962 0 0 0 639.720122 0 640.871619C64.195914 980.946836 236.088711 1024 448.027988 1024c175.027426 0 322.35497-29.363154 368.606735-69.473605C825.974636 947.425501 831.860061 937.253951 831.860061 927.914038L831.860061 287.042419C831.860061 234.009621 659.967264 191.020429 448.027988 191.020429zM448.027988 254.992441c129.159493 0 223.774099 15.929031 277.894421 32.049978C671.802087 303.227338 577.18748 319.092397 448.027988 319.092397S224.253889 303.227338 170.197539 287.042419C224.253889 270.985444 318.868495 254.992441 448.027988 254.992441zM767.888049 895.864059c-1.727244 19.70338-41.96564 32.049978-41.96564 32.049978C671.802087 944.034985 577.18748 959.964016 448.027988 959.964016s-223.774099-15.929031-277.830449-32.049978C128.167927 914.543887 128.167927 895.864059 128.167927 895.864059L128.167927 340.203161c68.769913 25.908665 186.2865 43.053164 319.860061 43.053164s251.15412-17.144499 319.860061-43.053164L767.888049 895.864059zM601.304929 0c-44.332604 0-214.242269 4.861873-318.260761 45.420129C282.340476 45.739989 282.020616 45.931905 281.380896 46.251765 267.179109 49.514337 256.367839 61.66902 256.367839 76.830387c0 17.720247 14.329731 32.049978 31.986006 32.049978 1.151496 0 2.047104-0.511776 3.198601-0.63972L291.616418 108.560505c1.343412-0.383832 2.942713-0.831636 4.222153-1.215468 2.047104-0.511776 4.094209-0.831636 6.013369-1.663272 70.625102-20.3431 184.239395-43.500968 299.452989-43.24508 104.850128 0.191916 194.794777 10.81127 257.551321 34.416943C890.842257 108.880365 895.832073 108.880365 895.832073 172.020741l-0.383832 538.260511c0.127944-0.063972-0.191916 2.175048 0 3.006685 0.383832 17.336415 14.905479 29.107266 32.369838 29.107266 15.737115 0 28.659461-10.875242 31.282314-25.844693C959.548198 713.351909 959.804086 711.112888 959.804086 710.345224c0-0.63972 0-605.30318 0-605.30318C959.804086 5.053789 661.118761 0 601.304929 0z" p-id="4645"></path></svg>