<?xml version="1.0" standalone="no"?><!DOCTYPE svg PUBLIC "-//W3C//DTD SVG 1.1//EN" "http://www.w3.org/Graphics/SVG/1.1/DTD/svg11.dtd"><svg t="1525931869853" class="icon" style="" viewBox="0 0 1024 1024" version="1.1" xmlns="http://www.w3.org/2000/svg" p-id="5042" xmlns:xlink="http://www.w3.org/1999/xlink" width="200" height="200"><defs><style type="text/css"></style></defs><path d="M736 64v92.8A67.2 67.2 0 0 0 803.2 224H896zM192 384V128h512V64H195.2A67.2 67.2 0 0 0 128 131.2V384zM832 256v640H192v-256H128v252.8A67.2 67.2 0 0 0 195.2 960h633.6a67.2 67.2 0 0 0 67.2-67.2V256z" fill="" p-id="5043"></path><path d="M704 512l-192-192v128H128v128h384v128l192-192z" fill="" p-id="5044"></path></svg>