<?xml version="1.0" standalone="no"?><!DOCTYPE svg PUBLIC "-//W3C//DTD SVG 1.1//EN" "http://www.w3.org/Graphics/SVG/1.1/DTD/svg11.dtd"><svg t="1561430690232" class="icon" viewBox="0 0 1024 1024" version="1.1" xmlns="http://www.w3.org/2000/svg" p-id="2079" xmlns:xlink="http://www.w3.org/1999/xlink" width="128" height="128"><defs><style type="text/css"></style></defs><path d="M1000.96 822.3232V5.9392c-3.1744 0-6.9632-0.6656-9.5232-0.6656H159.1808a159.1808 159.1808 0 0 0-45.7216 7.0144C55.04 30.0544 18.2272 81.4592 18.2272 144.3328v717.9776c1.28 47.0016 18.432 97.7408 57.1392 127.5904a148.48 148.48 0 0 0 92.672 31.1296h831.6416v-3.84h1.28V942.08a68.9664 68.9664 0 0 1 0-119.9616M915.2512 952.32H158.72a69.8368 69.8368 0 1 1 0-139.6736h756.736a133.888 133.888 0 0 0 0 139.6736m15.872-209.92h-12.6976c-192.9728 0-525.6192 0-718.6432-0.6656-38.7072 0-76.8 0-112.3328 22.8864v-12.6976c0-219.0336 0.6144-387.8912-0.6656-606.2592 0-38.0928 26.0608-71.68 73.6768-71.68 206.2848 0.6656 553.5744 0 759.8592 0h10.8032V742.4" p-id="2080"></path><path d="M229.0176 216.064h561.152v69.8368H229.0176V216.064m0 245.76h561.152v69.8368H229.0176V461.7216" p-id="2081"></path></svg>