<?xml version="1.0" standalone="no"?><!DOCTYPE svg PUBLIC "-//W3C//DTD SVG 1.1//EN" "http://www.w3.org/Graphics/SVG/1.1/DTD/svg11.dtd"><svg t="1525918441019" class="icon" style="" viewBox="0 0 1026 1024" version="1.1" xmlns="http://www.w3.org/2000/svg" p-id="1909" xmlns:xlink="http://www.w3.org/1999/xlink" width="200.390625" height="200"><defs><style type="text/css"></style></defs><path d="M908.022099 288.530387V132.950276c0-70.718232-56.574586-130.121547-130.121547-130.121547H130.121547C59.403315 2.828729 0 59.403315 0 132.950276v478.055249c0 65.060773 50.917127 118.80663 113.149171 127.292818v158.408839c0 70.718232 56.574586 127.292818 127.292818 127.292818h653.436464c70.718232 0 127.292818-56.574586 127.292818-127.292818v-480.883978c0-67.889503-50.917127-118.80663-113.149172-127.292817z m-792.044198 127.292817v268.729282c-31.116022-8.486188-56.574586-36.773481-56.574586-70.718232v-480.883978c0-39.60221 31.116022-73.546961 73.546961-73.546961h647.779006c39.60221 0 73.546961 31.116022 73.546961 73.546961v152.751381H240.441989c-67.889503 2.828729-124.464088 59.403315-124.464088 130.121547z m848.618784 480.883978c0 39.60221-31.116022 70.718232-70.718232 70.718232H240.441989c-39.60221 0-70.718232-31.116022-70.718232-70.718232v-480.883978c0-39.60221 31.116022-70.718232 70.718232-70.718232h653.436464c39.60221 0 70.718232 31.116022 70.718232 70.718232v480.883978z" p-id="1910"></path><path d="M653.436464 613.834254h254.585635v56.574586h-254.585635zM738.298343 472.39779h169.723756v56.574586h-169.723756zM653.436464 755.270718h254.585635v56.574586h-254.585635zM398.850829 500.685083c-93.348066 0-169.723757 76.375691-169.723757 169.723757v16.972375c5.657459 87.690608 79.20442 155.58011 169.723757 155.580111 93.348066 0 169.723757-76.375691 169.723757-169.723757h-169.723757v-172.552486z" p-id="1911"></path><path d="M427.138122 472.39779v169.723757h169.723756c0-93.348066-76.375691-169.723757-169.723756-169.723757z" p-id="1912"></path></svg>