<?xml version="1.0" standalone="no"?><!DOCTYPE svg PUBLIC "-//W3C//DTD SVG 1.1//EN" "http://www.w3.org/Graphics/SVG/1.1/DTD/svg11.dtd"><svg t="1540257223955" class="icon" style="" viewBox="0 0 1024 1024" version="1.1" xmlns="http://www.w3.org/2000/svg" p-id="5410" xmlns:xlink="http://www.w3.org/1999/xlink" width="128" height="128"><defs><style type="text/css"></style></defs><path d="M 204.8 136.533 c -37.5467 0 -68.2667 30.72 -68.2667 68.2667 v 68.2667 c 0 37.5467 30.72 68.2667 68.2667 68.2667 h 614.4 c 37.5467 0 68.2667 -30.72 68.2667 -68.2667 V 204.8 c 0 -37.5467 -30.72 -68.2667 -68.2667 -68.2667 H 204.8 Z M 136.533 546.133 c 0 37.5467 30.72 68.2667 68.2667 68.2667 h 68.2667 c 37.5467 0 68.2667 -30.72 68.2667 -68.2667 v -68.2667 c 0 -37.5467 -30.72 -68.2667 -68.2667 -68.2667 H 204.8 c -37.5467 0 -68.2667 30.72 -68.2667 68.2667 v 68.2667 Z M 409.6 546.133 c 0 37.5467 30.72 68.2667 68.2667 68.2667 h 68.2667 c 37.5467 0 68.2667 -30.72 68.2667 -68.2667 v -68.2667 c 0 -37.5467 -30.72 -68.2667 -68.2667 -68.2667 h -68.2667 c -37.5467 0 -68.2667 30.72 -68.2667 68.2667 v 68.2667 Z M 682.667 546.133 c 0 37.5467 30.72 68.2667 68.2667 68.2667 h 68.2667 c 37.5467 0 68.2667 -30.72 68.2667 -68.2667 v -68.2667 c 0 -37.5467 -30.72 -68.2667 -68.2667 -68.2667 h -68.2667 c -37.5467 0 -68.2667 30.72 -68.2667 68.2667 v 68.2667 Z M 136.533 819.2 c 0 37.5467 30.72 68.2667 68.2667 68.2667 h 68.2667 c 37.5467 0 68.2667 -30.72 68.2667 -68.2667 v -68.2667 c 0 -37.5467 -30.72 -68.2667 -68.2667 -68.2667 H 204.8 c -37.5467 0 -68.2667 30.72 -68.2667 68.2667 v 68.2667 Z M 409.6 819.2 c 0 37.5467 30.72 68.2667 68.2667 68.2667 h 68.2667 c 37.5467 0 68.2667 -30.72 68.2667 -68.2667 v -68.2667 c 0 -37.5467 -30.72 -68.2667 -68.2667 -68.2667 h -68.2667 c -37.5467 0 -68.2667 30.72 -68.2667 68.2667 v 68.2667 Z M 682.667 819.2 c 0 37.5467 30.72 68.2667 68.2667 68.2667 h 68.2667 c 37.5467 0 68.2667 -30.72 68.2667 -68.2667 v -68.2667 c 0 -37.5467 -30.72 -68.2667 -68.2667 -68.2667 h -68.2667 c -37.5467 0 -68.2667 30.72 -68.2667 68.2667 v 68.2667 Z" p-id="5411"></path></svg>