<?xml version="1.0" standalone="no"?><!DOCTYPE svg PUBLIC "-//W3C//DTD SVG 1.1//EN" "http://www.w3.org/Graphics/SVG/1.1/DTD/svg11.dtd"><svg t="1525933477076" class="icon" style="" viewBox="0 0 1024 1024" version="1.1" xmlns="http://www.w3.org/2000/svg" p-id="4421" xmlns:xlink="http://www.w3.org/1999/xlink" width="200" height="200"><defs><style type="text/css"></style></defs><path d="M133.12 418.816c-7.168 4.096-14.336 8.192-21.504 12.8l-0.512 0.512c-80.384 60.416-112.128 148.48-87.04 242.688 28.672 108.032 129.536 196.096 233.984 204.8 5.632 0.512 11.264 0.512 16.896 0.512 131.072 0 200.704-114.176 230.912-182.784 90.624-173.056 194.56-260.608 285.696-240.64 70.144 15.36 117.248 90.624 122.368 154.112 2.048 23.04-1.024 51.2-18.944 73.728l43.008 93.184c50.176-39.424 75.776-101.888 69.632-175.104-7.68-96.256-76.8-212.48-190.464-241.152-5.12-70.656-40.448-135.168-96.256-177.664-89.6-70.144-226.304-84.48-332.288-35.84-70.144 31.744-123.392 90.624-148.48 163.328l-107.008 107.52z m195.072-72.192c15.872-48.64 51.712-88.064 98.304-108.544 76.288-35.328 174.592-25.088 238.592 24.576 30.72 23.04 51.712 57.856 57.344 95.744-82.944 16.384-192 84.992-299.52 292.352l-1.536 2.56c-26.624 61.44-75.264 132.608-156.16 126.464-66.048-5.12-132.096-63.488-150.528-132.608-9.728-36.864-9.216-89.6 49.152-133.632 0.512 0 0.512-0.512 1.024-0.512l163.328-166.4z" fill="#757575" p-id="4422"></path><path d="M250.88 414.72m-122.88 0a122.88 122.88 0 1 0 245.76 0 122.88 122.88 0 1 0-245.76 0Z" fill="#959595" p-id="4423"></path><path d="M824.32 778.24m-122.88 0a122.88 122.88 0 1 0 245.76 0 122.88 122.88 0 1 0-245.76 0Z" fill="#959595" p-id="4424"></path></svg>