<?xml version="1.0" standalone="no"?><!DOCTYPE svg PUBLIC "-//W3C//DTD SVG 1.1//EN" "http://www.w3.org/Graphics/SVG/1.1/DTD/svg11.dtd"><svg t="1563201236722" class="icon" viewBox="0 0 1024 1024" version="1.1" xmlns="http://www.w3.org/2000/svg" p-id="9103" xmlns:xlink="http://www.w3.org/1999/xlink" width="128" height="128"><defs><style type="text/css"></style></defs><path d="M493.01504 782.15168c-9.62048 0.2816-19.2768 0.53248-29.09696 0.53248-202.92096 0-367.39584-60.60032-367.39584-135.34208v162.41152c0 74.752 164.48 135.36256 367.39584 135.36256 130.688 0 245.12-25.22624 310.24128-63.09376-22.2208 6.23104-45.568 9.80992-69.7856 9.80992-87.34208 0-164.44928-43.43296-211.35872-109.68064z m338.27328-378.4192c0 1.12128-0.37376 2.20672-0.4608 3.30752 0.1536 0.08192 0.30208 0.1792 0.4608 0.28672v-3.59424z m-376.4224 297.6c-5.98016-21.85728-9.45152-44.71296-9.45152-68.43904 0-33.13152 6.4512-64.70144 17.81248-93.83936-202.58816-0.11264-366.70464-60.65152-366.70464-135.31648v162.4064c0 73.58464 159.64672 133.38112 358.34368 135.18848z m9.05216-243.46624c17.47456 0 34.52928-0.60416 51.34336-1.47968 47.26784-50.6112 114.42176-82.4576 189.12256-82.4576 28.68736 0 56.18176 4.84864 81.95072 13.47072 28.65152-19.28192 44.95872-41.3696 44.95872-64.88576V214.24128c0-74.74176-164.46976-135.35744-367.36512-135.35744-202.92096 0-367.39584 60.61568-367.39584 135.35744V322.5088c-0.01024 74.7264 164.46464 135.35744 367.3856 135.35744zM746.21952 644.29568c-4.16256-3.21024-10.07616-4.8128-17.74592-4.8128h-17.20832v37.89312h17.47456c7.42912 0 13.24544-1.72544 17.4336-5.1712 4.18816-3.45088 6.28736-8.23296 6.28736-14.35648 0-5.82144-2.07872-10.3424-6.24128-13.55264zM741.13536 612.45952c3.8656-3.21024 5.79584-7.69536 5.79584-13.46048 0-10.57792-7.72608-15.87712-23.17824-15.87712h-12.48256v34.1504h13.99808c6.71232 0.00512 12.00128-1.60256 15.86688-4.8128zM596.3776 585.2672h-15.95904v89.96864h16.0512c13.97248 0 24.9344-4.16256 32.90624-12.48256 7.96672-8.32 11.94496-19.584 11.94496-33.792 0-13.73696-4.16256-24.448-12.48256-32.14336-8.32512-7.70048-19.14368-11.55072-32.4608-11.55072z" fill="#00C1DE" p-id="9104"></path><path d="M710.43072 409.75872c-119.87968 0-217.07264 97.18272-217.07264 217.06752 0 119.85408 97.19296 217.05728 217.07264 217.05728 119.85408 0 217.05216-97.19296 217.05216-217.05728-0.00512-119.87968-97.19808-217.06752-217.05216-217.06752z m-58.76736 270.1568c-13.73184 12.928-31.44704 19.39456-53.1456 19.39456h-47.52384v-138.12224h47.70304c49.03936 0 73.55904 22.44096 73.55904 67.31776 0.00512 21.3504-6.8608 38.48192-20.59264 51.40992z m118.36416 8.2944c-8.91392 7.3984-21.09952 11.10016-36.5568 11.10016h-51.63008v-138.12224h49.03936c15.04256 0 26.62912 2.85696 34.77504 8.56064 8.14592 5.7088 12.22144 13.61408 12.22144 23.72096 0 7.49056-2.52928 14.05952-7.5776 19.70688-5.05344 5.65248-11.41248 9.53856-19.08736 11.67872v0.3584c9.63072 1.18784 17.40288 4.75648 23.3216 10.7008s8.86784 13.40416 8.86784 22.37952c0 12.53888-4.4544 22.51776-13.37344 29.91616z m16.52736 11.10016v-10.25536c0-7.18848 1.32608-13.76256 3.968-19.70688s6.28736-11.48416 10.92096-16.62976c4.63872-5.14048 11.83232-11.1616 21.5808-18.05312 8.91392-6.656 15.16032-12.55936 18.72384-17.69984s5.3504-10.59328 5.3504-16.3584c0-12.42624-6.77376-18.64192-20.33152-18.64192-11.88864 0-23.2448 4.7616-34.05824 14.26944v-25.68192c12.06272-7.78752 25.62048-11.67872 40.65792-11.67872 13.78816 0 24.69376 3.52256 32.72192 10.56256s12.04224 16.74752 12.04224 29.11232c0 6.90176-1.16224 13.12256-3.4816 18.67776-2.31424 5.56032-5.67296 10.7776-10.07616 15.65184-4.39808 4.87424-11.4432 10.73152-21.13024 17.56672-9.33376 6.66112-15.60576 11.8016-18.816 15.43168-3.21024 3.62496-4.8128 6.77376-4.8128 9.45152h58.57792v23.9872h-91.83744z" fill="#00C1DE" p-id="9105"></path></svg>