<?xml version="1.0" standalone="no"?><!DOCTYPE svg PUBLIC "-//W3C//DTD SVG 1.1//EN" "http://www.w3.org/Graphics/SVG/1.1/DTD/svg11.dtd"><svg class="icon" width="200px" height="200.00px" viewBox="0 0 1024 1024" version="1.1" xmlns="http://www.w3.org/2000/svg"><path d="M753.834667 279.637333c5.376-32.512 29.184-54.272 42.666666-81.664a373.504 373.504 0 0 1 37.802667-56.917333c13.397333-18.432 29.44-28.16 51.2-14.08s23.296 31.402667 10.154667 52.053333c-25.002667 39.168-49.749333 78.421333-74.922667 117.418667-9.642667 14.848-23.296 23.978667-41.898667 17.493333a34.986667 34.986667 0 0 1-25.002666-34.304zM994.816 317.952c-2.986667 11.946667-4.864 23.296-15.616 30.634667-24.576 17.066667-48.725333 34.645333-73.216 51.797333-18.688 13.056-37.205333 12.970667-51.2-5.802667s-7.424-36.522667 10.154667-50.432c22.784-17.92 47.872-32.597333 69.461333-52.48a34.986667 34.986667 0 0 1 40.789333-2.986666 37.546667 37.546667 0 0 1 19.626667 29.269333zM440.576 910.762667a325.546667 325.546667 0 0 1-66.730667-14.08 11.690667 11.690667 0 1 0-7.168 22.186666 351.829333 351.829333 0 0 0 71.594667 15.018667h1.194667a11.690667 11.690667 0 1 0 1.194666-23.296z m149.674667-6.741334a11.690667 11.690667 0 0 0-14.677334-7.424 325.205333 325.205333 0 0 1-66.730666 14.165334 11.690667 11.690667 0 1 0 1.194666 23.296h1.194667a347.477333 347.477333 0 0 0 71.594667-15.189334 11.690667 11.690667 0 0 0 7.509333-14.677333z m-276.053334-32.682666a12.458667 12.458667 0 0 0-2.730666-2.133334 329.728 329.728 0 0 1-55.466667-40.021333h-0.597333a11.605333 11.605333 0 0 0-14.762667 17.322667 351.146667 351.146667 0 0 0 53.162667 39.424l5.802666 3.584a11.690667 11.690667 0 0 0 15.957334-4.352 11.690667 11.690667 0 0 0-1.28-13.824z m395.264-41.728a11.690667 11.690667 0 0 0-16.469333-0.853334 326.997333 326.997333 0 0 1-49.834667 36.778667l-5.376 3.242667a11.690667 11.690667 0 1 0 11.690667 20.138666c4.352-2.474667 8.533333-5.034667 12.714667-7.765333a348.330667 348.330667 0 0 0 46.08-34.986667 11.690667 11.690667 0 0 0 1.109333-16.469333zM147.882667 586.581333A11.690667 11.690667 0 0 0 136.533333 574.976a11.690667 11.690667 0 0 0-11.690666 11.690667 352.512 352.512 0 0 0 7.68 72.704 12.117333 12.117333 0 0 0 0.597333 1.962666 100.437333 100.437333 0 0 1 20.48-15.274666 332.8 332.8 0 0 1-5.717333-59.477334z m664.832-13.568a11.690667 11.690667 0 0 0-11.690667 11.690667v1.28a333.994667 333.994667 0 0 1-4.096 51.797333 102.4 102.4 0 0 1 22.272 10.24 351.317333 351.317333 0 0 0 5.546667-62.378666v-1.109334a11.690667 11.690667 0 0 0-12.032-11.52zM169.813333 438.357333a11.690667 11.690667 0 0 0-15.36 5.802667 346.453333 346.453333 0 0 0-22.442666 69.632 11.690667 11.690667 0 1 0 22.869333 4.778667 324.778667 324.778667 0 0 1 20.906667-64.938667 11.690667 11.690667 0 0 0-5.973334-15.274667zM816.469333 512A347.648 347.648 0 0 0 793.6 442.453333 11.690667 11.690667 0 0 0 772.352 452.266667 325.546667 325.546667 0 0 1 793.6 516.864a11.690667 11.690667 0 0 0 13.909333 8.533333A11.690667 11.690667 0 0 0 816.469333 512zM256 327.338667a11.690667 11.690667 0 0 0-16.469333-0.853334 348.586667 348.586667 0 0 0-48.810667 54.442667 11.776 11.776 0 0 0 19.029333 13.738667 327.850667 327.850667 0 0 1 45.568-51.2 11.690667 11.690667 0 0 0 0.682667-16.128z m500.650667 52.053333a349.098667 349.098667 0 0 0-49.066667-54.186667 11.690667 11.690667 0 0 0-15.530667 17.493334 328.362667 328.362667 0 0 1 45.909334 50.517333 11.605333 11.605333 0 0 0 18.773333-13.738667zM380.16 260.864a3.413333 3.413333 0 0 0 0-0.853333 11.690667 11.690667 0 0 0-14.421333-6.826667 344.576 344.576 0 0 0-56.234667 24.405333c-3.584 1.792-6.997333 3.754667-10.410667 5.802667a11.690667 11.690667 0 1 0 10.069334 20.992l1.536-0.938667 1.194666-0.682666a327.424 327.424 0 0 1 61.184-27.392 11.690667 11.690667 0 0 0 7.424-14.677334zM648.533333 282.368a348.501333 348.501333 0 0 0-59.733333-27.136 98.474667 98.474667 0 0 1 0 11.008 103.253333 103.253333 0 0 1-1.024 13.568 327.424 327.424 0 0 1 48.725333 22.784A11.690667 11.690667 0 0 0 648.533333 282.368z" fill="#ff7e00" /><path d="M938.666667 734.464a174.677333 174.677333 0 0 0-175.36-172.202667c-101.290667 0-179.2 81.664-173.824 177.066667-3.669333 46.677333 18.432 93.269333 53.845333 126.208a181.162667 181.162667 0 0 0 19.029333 15.616 165.632 165.632 0 0 0 104.96 31.914667c93.781333-5.461333 174.848-84.053333 171.349334-178.602667zM761.685333 842.24a104.96 104.96 0 1 1 35.242667-204.117333A102.4 102.4 0 0 1 819.2 648.533333a104.704 104.704 0 0 1-57.173333 193.877334zM379.050667 734.464a174.677333 174.677333 0 0 0-175.616-172.202667A177.834667 177.834667 0 0 0 136.533333 574.976q-4.522667 1.792-8.533333 3.84A167.509333 167.509333 0 0 0 29.610667 739.328c-7.082667 90.709333 82.261333 179.2 177.92 173.738667a185.6 185.6 0 0 0 86.272-27.392 187.733333 187.733333 0 0 0 20.48-14.336 169.130667 169.130667 0 0 0 64.768-136.874667zM201.813333 842.24a105.301333 105.301333 0 0 1-102.4-106.154667 104.106667 104.106667 0 0 1 33.024-74.666666A100.437333 100.437333 0 0 1 153.6 646.229333a104.618667 104.618667 0 1 1 102.4 182.528 94.976 94.976 0 0 1-18.773333 8.533334 102.997333 102.997333 0 0 1-35.413334 4.949333zM659.029333 262.058667a174.677333 174.677333 0 0 0-175.701333-172.117334c-101.290667 0-179.2 81.664-173.824 177.066667a93.866667 93.866667 0 0 0 0 10.581333 130.986667 130.986667 0 0 0 2.474667 25.6c14.677333 76.8 92.928 142.848 175.786666 137.898667C581.12 435.2 662.186667 356.608 659.029333 262.058667zM481.706667 369.834667a104.96 104.96 0 0 1-101.888-100.864v-8.533334A104.96 104.96 0 0 1 588.8 255.232a98.474667 98.474667 0 0 1 0 11.008 103.253333 103.253333 0 0 1-1.024 13.568 105.472 105.472 0 0 1-106.069333 90.026667z" fill="#1296db" /></svg>