<?xml version="1.0" standalone="no"?><!DOCTYPE svg PUBLIC "-//W3C//DTD SVG 1.1//EN" "http://www.w3.org/Graphics/SVG/1.1/DTD/svg11.dtd"><svg t="1525918138432" class="icon" style="" viewBox="0 0 1024 1024" version="1.1" xmlns="http://www.w3.org/2000/svg" p-id="1218" xmlns:xlink="http://www.w3.org/1999/xlink" width="200" height="200"><defs><style type="text/css"></style></defs><path d="M509.171271 2.828729l-480.883978 254.585636v512l480.883978 254.585635 480.883978-254.585635V257.414365l-480.883978-254.585636zM879.734807 265.900552l-181.038674 96.176796L509.171271 254.585635l-206.497238 118.80663L107.491713 282.872928l401.679558-212.154696L879.734807 265.900552zM339.447514 452.596685l138.607735 65.060774v172.552486l-138.607735-79.20442V452.596685z m195.18232 62.232044l144.265194-76.37569v172.552486l-144.265194 82.033149v-178.209945z m-31.116022-48.088398l-138.607735-65.060773 144.265194-82.033149 132.950276 76.37569-138.607735 70.718232zM87.690608 333.790055L282.872928 424.309392v217.812155l195.182321 110.320442v183.867403L87.690608 732.640884V333.790055z m446.939226 608.176796v-183.867403l200.839779-115.977901v-234.78453l195.182321-104.662984v427.138122l-396.0221 212.154696z" p-id="1219"></path></svg>