<?xml version="1.0" standalone="no"?><!DOCTYPE svg PUBLIC "-//W3C//DTD SVG 1.1//EN" "http://www.w3.org/Graphics/SVG/1.1/DTD/svg11.dtd"><svg t="1525858996359" class="icon" style="" viewBox="0 0 1024 1024" version="1.1" xmlns="http://www.w3.org/2000/svg" p-id="6402" xmlns:xlink="http://www.w3.org/1999/xlink" width="200" height="200"><defs><style type="text/css"></style></defs><path d="M753.664 600.064l172.032 0c12.288 0 20.48 8.192 20.48 20.48l0 0 0 167.936c0 12.288-10.24 20.48-20.48 20.48l0 0-172.032 0 0 20.48c0 18.432-16.384 34.816-34.816 34.816l0 0L303.104 864.256c-18.432 0-34.816-16.384-34.816-34.816l0 0 0-20.48L96.256 808.96c-12.288 0-20.48-8.192-20.48-20.48l0 0 0-167.936c0-12.288 8.192-20.48 20.48-20.48l0 0 172.032 0 0-20.48c0-18.432 16.384-34.816 34.816-34.816l2.048 0 47.104 0 0-49.152c0-18.432 16.384-34.816 34.816-34.816l0 0 20.48 0L407.552 178.176c0-12.288 10.24-20.48 20.48-20.48l0 0 167.936 0c12.288 0 20.48 8.192 20.48 20.48l0 0 0 282.624 20.48 0c18.432 0 34.816 16.384 34.816 34.816l0 0 0 49.152 49.152 0c18.432 0 34.816 14.336 34.816 34.816l0 0L755.712 600.064 753.664 600.064zM448.512 460.8 448.512 460.8 573.44 460.8 573.44 198.656l-124.928 0L448.512 460.8 448.512 460.8zM753.664 641.024 753.664 641.024l0 124.928 151.552 0 0-124.928L753.664 641.024 753.664 641.024zM268.288 768 268.288 768l0-124.928L116.736 643.072l0 124.928L268.288 768 268.288 768zM421.888 530.432 421.888 530.432l0 47.104 0 0c0 18.432-14.336 34.816-34.816 34.816l-49.152 0 0 180.224 348.16 0L686.08 614.4l-47.104 0 0 0c-18.432 0-34.816-14.336-34.816-34.816l0-49.152L421.888 530.432 421.888 530.432z" p-id="6403"></path></svg>