<?xml version="1.0" standalone="no"?><!DOCTYPE svg PUBLIC "-//W3C//DTD SVG 1.1//EN" "http://www.w3.org/Graphics/SVG/1.1/DTD/svg11.dtd"><svg t="1525932290674" class="icon" style="" viewBox="0 0 1024 1024" version="1.1" xmlns="http://www.w3.org/2000/svg" p-id="5672" xmlns:xlink="http://www.w3.org/1999/xlink" width="200" height="200"><defs><style type="text/css"></style></defs><path d="M846.985936 163.175383 681.626817 163.175383l0 60.410881c0 1.095961-0.080841 2.162246-0.209778 3.231601L794.969235 226.817865c14.473643 0 26.177196 11.721973 26.177196 26.184359l0 551.60502c0 14.474666-11.714809 26.195615-26.177196 26.195615L226.97699 830.80286c-14.461363 0-26.184359-11.732206-26.184359-26.195615L200.792631 252.990968c0-14.458293 11.732206-26.184359 26.184359-26.184359L340.529185 226.806609c-0.127913-1.065262-0.215918-2.131547-0.215918-3.230578l0-60.400648L174.971545 163.175383c-14.458293 0-26.184359 11.733229-26.184359 26.184359L148.787186 868.257913c0 14.46341 11.725042 26.188452 26.184359 26.188452l672.01439 0c14.45113 0 26.176173-11.735275 26.176173-26.188452L873.162108 189.362812C873.158015 174.911682 861.437066 163.175383 846.985936 163.175383L846.985936 163.175383zM653.077597 226.594785c0 15.781428-15.003715 28.580942-33.587979 28.580942L401.629775 255.175727c-18.525935 0-33.559327-12.785188-33.559327-28.580942l0-71.491241c0-15.771195 15.033391-28.585035 33.559327-28.585035l217.844493 0c18.585287 0 33.589003 12.81384 33.589003 28.585035l0 71.491241L653.077597 226.594785 653.077597 226.594785zM272.427134 358.868367c0-11.231809 4.625344-22.396079 12.568247-30.340005 7.943926-7.943926 19.10615-12.568247 30.340005-12.568247 11.234879 0 22.399149 4.624321 30.338982 12.568247 7.944949 7.943926 12.568247 19.108197 12.568247 30.340005 0 11.233855-4.623297 22.398126-12.568247 30.342052-7.939833 7.939833-19.104103 12.564154-30.338982 12.564154-11.233855 0-22.396079-4.624321-30.340005-12.564154C277.051455 381.26547 272.427134 370.101199 272.427134 358.868367L272.427134 358.868367zM272.427134 532.772093c0-11.234879 4.625344-22.399149 12.568247-30.343075 7.943926-7.939833 19.10615-12.564154 30.340005-12.564154 11.234879 0 22.399149 4.624321 30.338982 12.564154 7.944949 7.943926 12.568247 19.108197 12.568247 30.343075 0 11.236925-4.623297 22.405289-12.568247 30.350239-7.939833 7.944949-19.104103 12.567223-30.338982 12.567223-11.233855 0-22.396079-4.623297-30.340005-12.567223C277.051455 555.176358 272.427134 544.009018 272.427134 532.772093L272.427134 532.772093zM272.427134 704.994526c0-11.234879 4.625344-22.396079 12.568247-30.337959 7.943926-7.944949 19.10615-12.567223 30.340005-12.567223 11.234879 0 22.399149 4.623297 30.338982 12.567223 7.944949 7.942903 12.568247 19.104103 12.568247 30.337959 0 11.233855-4.623297 22.399149-12.568247 30.340005-7.939833 7.942903-19.104103 12.567223-30.338982 12.567223-11.233855 0-22.396079-4.625344-30.340005-12.567223C277.051455 727.392652 272.427134 716.227358 272.427134 704.994526L272.427134 704.994526zM398.247748 328.46594l349.131609 0 0 47.846728-349.131609 0L398.247748 328.46594 398.247748 328.46594zM398.247748 508.826727l349.131609 0 0 47.868217-349.131609 0L398.247748 508.826727 398.247748 508.826727zM398.247748 681.07065l349.131609 0 0 47.846728-349.131609 0L398.247748 681.07065 398.247748 681.07065zM369.155153 681.07065" p-id="5673"></path></svg>