<?xml version="1.0" standalone="no"?><!DOCTYPE svg PUBLIC "-//W3C//DTD SVG 1.1//EN" "http://www.w3.org/Graphics/SVG/1.1/DTD/svg11.dtd"><svg t="1544081877064" class="icon" style="" viewBox="0 0 1024 1024" version="1.1" xmlns="http://www.w3.org/2000/svg" p-id="5148" xmlns:xlink="http://www.w3.org/1999/xlink" width="200" height="200"><defs><style type="text/css"></style></defs><path d="M926.2 839.7c0.4-2.8 0.8-5.5 0.8-8.4V183.9c19-11.1 31.9-31.4 31.9-55 0-35.3-28.6-63.9-63.9-63.9-23.6 0-43.9 12.9-55 31.9H183.9c-11.1-19-31.4-31.9-55-31.9C93.6 65 65 93.6 65 128.9c0 23.6 12.9 43.9 31.9 55v647.4c0 2.9 0.5 5.6 0.9 8.4C78.3 850.6 65 871.2 65 895.1c0 35.3 28.6 63.9 63.9 63.9s63.9-28.6 63.9-63.9h638.6c0 35.3 28.6 63.9 63.9 63.9s63.9-28.6 63.9-63.9c-0.2-23.9-13.5-44.5-33-55.4z m-63-8.4H160.8V183.9c9.6-5.6 17.5-13.5 23.1-23.1h656.3c5.6 9.6 13.5 17.5 23.1 23.1v647.4zM256.6 256.6H339l159 365.3h1.9l158.4-365.3h82.4v455.9H671V386.8h-2.6L528.6 712.5h-60L328.7 386.8h-2.6v325.7h-69.6V256.6z" p-id="5149"></path></svg>