<?xml version="1.0" standalone="no"?><!DOCTYPE svg PUBLIC "-//W3C//DTD SVG 1.1//EN" "http://www.w3.org/Graphics/SVG/1.1/DTD/svg11.dtd"><svg t="1546479895245" class="icon" style="" viewBox="0 0 1024 1024" version="1.1" xmlns="http://www.w3.org/2000/svg" p-id="4333" xmlns:xlink="http://www.w3.org/1999/xlink" width="200" height="200"><defs><style type="text/css"></style></defs><path d="M888.32 627.2a30.1568 30.1568 0 0 0-30.72 30.72v203.776c0 28.672-7.168 40.96-8.704 43.52l-4.608 7.168H156.672c-23.552 0-49.664-34.304-50.688-49.664l-1.024-589.824 4.608-4.608c4.608-4.608 16.896-10.24 47.104-10.24h296.96a30.208 30.208 0 1 0 0-60.416h-296.96a143.36 143.36 0 0 0-77.824 22.016A66.9696 66.9696 0 0 0 45.056 276.48v584.704c0 49.664 56.32 107.52 106.496 111.616v0.512H839.68c38.912 0 78.848-41.984 78.848-111.616v-203.776a30.3616 30.3616 0 0 0-30.208-30.72z" p-id="4334"></path><path d="M481.28 512.512l38.912 1.024c9.216 0.512 18.432 0.512 27.648 0.512 157.696 0 272.384-41.472 340.48-122.88C993.28 264.704 981.504 92.16 979.456 73.216v-1.024a30.72 30.72 0 0 0-28.672-20.48h-1.536l-1.024-1.024-5.12 2.56a29.0304 29.0304 0 0 0-17.92 14.848 30.3104 30.3104 0 0 0-2.56 22.016v0.512c5.12 21.504 1.024 163.84-80.384 261.12-55.808 67.072-154.624 100.864-293.376 100.864h-18.944l-39.424-0.512 165.888-146.944a30.72 30.72 0 0 0 10.24-20.992 28.416 28.416 0 0 0-8.192-22.016 30.72 30.72 0 0 0-22.528-9.728 32.9216 32.9216 0 0 0-20.48 7.68L364.1344 481.792 614.4 732.16a30.208 30.208 0 0 0 51.712-21.504 31.0784 31.0784 0 0 0-8.704-21.504z" p-id="4335"></path></svg>