<?xml version="1.0" standalone="no"?><!DOCTYPE svg PUBLIC "-//W3C//DTD SVG 1.1//EN" "http://www.w3.org/Graphics/SVG/1.1/DTD/svg11.dtd"><svg t="1543304292739" class="icon" style="" viewBox="0 0 1024 1024" version="1.1" xmlns="http://www.w3.org/2000/svg" p-id="38747" xmlns:xlink="http://www.w3.org/1999/xlink" width="200" height="200"><defs><style type="text/css"></style></defs><path d="M949.76 611.84c-3.84-17.066667-19.626667-37.546667-50.773333-37.546667a102.826667 102.826667 0 0 0-21.333334 2.56 257.28 257.28 0 0 1-38.4 5.12c86.186667-146.773333 141.653333-349.866667 86.613334-420.693333-73.386667-93.013333-171.52-107.093333-223.573334-107.093333h-4.693333a305.066667 305.066667 0 0 0-59.733333 7.253333L563.2 77.226667a277.76 277.76 0 0 0-31.146667-2.56h-4.266666a202.24 202.24 0 0 0-90.453334 20.053333l-26.026666-10.24c-35.84-14.08-89.6-31.146667-142.933334-31.146667h-8.533333C207.36 55.04 162.133333 75.093333 129.28 110.933333c-40.96 44.8-59.733333 110.08-55.466667 194.133334 0 4.266667 51.2 434.773333 195.413334 434.773333h1.706666a84.053333 84.053333 0 0 0 53.333334-22.613333 100.266667 100.266667 0 0 0 44.8 17.493333 221.866667 221.866667 0 0 0 50.346666 5.973333 165.12 165.12 0 0 0 71.68-15.36c0 18.346667 0 41.386667-0.426666 71.253334v2.986666a287.146667 287.146667 0 0 0 14.933333 76.8c21.76 59.306667 59.733333 92.16 106.24 92.16h5.973333c38.4-2.56 77.226667-23.893333 104.106667-57.6s35.84-75.093333 38.4-104.533333v-87.466667h2.133333l8.96 0.853334h9.813334a250.88 250.88 0 0 0 96-20.48c25.173333-10.666667 82.346667-42.666667 72.533333-87.466667z" fill="#FFFFFF" p-id="38748"></path><path d="M718.933333 699.306667c0-4.266667 0.426667-7.68 0.426667-11.946667V678.4h0.853333c2.986667-55.466667 18.346667-77.226667 34.986667-89.173333l-7.253333-9.813334c-6.826667-8.96-15.786667-20.48-24.746667-34.986666l-1.706667-3.413334c-1.28-3.413333-4.693333-9.386667-8.96-17.066666-24.746667-44.373333-75.946667-137.386667-40.533333-195.84 15.36-25.6 43.946667-40.533333 85.76-43.946667-17.066667-48.213333-80.64-165.12-225.28-167.253333-127.146667-2.133333-168.106667 111.786667-181.76 180.053333a156.586667 156.586667 0 0 1 58.88-12.8h0.853333c47.786667 0.426667 80.213333 25.6 90.026667 69.973333a401.92 401.92 0 0 1 10.24 86.613334 278.613333 278.613333 0 0 1-21.76 112.64l-3.413333 8.533333c-2.56 6.826667-5.12 13.226667-7.68 19.626667s-5.12 11.52-6.4 16.64a122.88 122.88 0 0 1 23.466666 7.68l2.986667 1.28 2.986667 1.28a63.146667 63.146667 0 0 1 31.146666 46.506666c1.28 10.24 0.853333 81.066667 0.426667 142.506667a244.053333 244.053333 0 0 0 12.373333 65.28c8.533333 23.04 29.866667 67.413333 70.826667 64.853333 28.586667-1.706667 55.893333-19.2 74.24-42.24s26.453333-51.626667 29.44-82.346666v-103.68z" fill="#0277BD" p-id="38749"></path><path d="M346.88 593.493333c-33.706667-34.986667-49.92-82.346667-43.946667-126.293333s2.56-83.626667 0.853334-106.24c-0.426667-7.253333-0.853333-12.8-0.853334-16.213333 2.56-62.72 26.88-162.133333 93.44-221.013334-32.426667-12.8-85.333333-29.866667-135.253333-27.733333-78.08 2.986667-153.173333 56.746667-145.493333 208.213333 2.986667 56.746667 66.986667 397.653333 154.88 395.52 12.373333-0.426667 25.6-8.533333 38.826666-24.32 21.333333-25.6 41.813333-48.64 56.32-64.426666a156.586667 156.586667 0 0 1-18.773333-17.493334zM802.56 298.24a28.586667 28.586667 0 0 1-0.426667 8.533333 367.36 367.36 0 0 1-3.413333 55.893334c-1.706667 13.226667-2.986667 26.88-3.413333 40.533333a233.386667 233.386667 0 0 0 3.413333 40.533333c4.693333 32.853333 9.386667 69.973333-15.786667 113.066667 4.693333 5.973333 8.96 11.946667 11.946667 17.493333 96-155.306667 134.4-340.48 97.706667-387.413333-55.893333-71.253333-133.12-92.16-194.56-90.88a268.373333 268.373333 0 0 0-51.626667 5.973333c105.813333 51.2 152.746667 160.853333 156.16 196.266667zM885.333333 617.386667c-55.466667 11.52-81.92 5.546667-95.146666-2.56l-5.973334 3.84c-7.68 4.693333-20.053333 11.946667-23.04 58.026666l5.12 0.853334 8.96 0.853333a206.933333 206.933333 0 0 0 84.48-16.213333c45.653333-20.906667 70.4-53.76 25.6-44.8zM490.666667 660.053333a20.906667 20.906667 0 0 0-10.24-15.36l-2.133334-0.853333a66.133333 66.133333 0 0 0-29.44-7.253333h-11.093333c-9.813333 7.68-23.893333 13.226667-58.453333 20.48-61.866667 15.786667-25.173333 34.56-1.706667 37.12s77.653333 12.8 113.92-16.64c-0.426667-8.533333-0.853333-14.933333-0.853333-17.493334z" fill="#0277BD" p-id="38750"></path><path d="M462.506667 376.746667a30.293333 30.293333 0 0 1-26.453334 10.24c-17.066667-2.56-30.293333-23.466667-29.44-31.573334s15.786667-11.946667 32.853334-8.96a65.28 65.28 0 0 1 16.213333 4.693334c-6.826667-14.506667-18.773333-22.613333-37.12-24.746667-32.426667-3.84-66.986667 13.226667-74.24 22.613333 0 2.56 0.426667 5.12 0.853333 8.533334 2.133333 23.893333 5.546667 68.266667-0.853333 115.2-4.266667 30.72 8.106667 66.133333 32.426667 91.306666a96.853333 96.853333 0 0 0 52.48 29.866667 180.906667 180.906667 0 0 1 10.666666-29.866667c2.56-5.546667 4.693333-11.52 7.253334-17.92l3.413333-8.96A240.64 240.64 0 0 0 469.333333 439.466667a345.6 345.6 0 0 0-6.826666-62.72zM757.333333 449.706667a273.493333 273.493333 0 0 1-3.84-47.786667c0.426667-15.36 2.133333-29.866667 3.84-43.946667s2.133333-21.76 2.986667-32.426666c-26.88 2.133333-44.8 9.813333-52.906667 23.04a53.333333 53.333333 0 0 1 11.946667-2.56c18.773333-2.56 32 2.986667 33.706667 13.226666s-5.12 14.506667-8.106667 17.493334a36.266667 36.266667 0 0 1-20.48 10.24h-3.84a34.986667 34.986667 0 0 1-19.626667-6.4c2.56 40.96 32.426667 96 47.36 122.88l7.68 14.506666c7.68-23.466667 4.693333-44.373333 1.28-68.266666z" fill="#0277BD" p-id="38751"></path></svg>