<?xml version="1.0" standalone="no"?><!DOCTYPE svg PUBLIC "-//W3C//DTD SVG 1.1//EN" "http://www.w3.org/Graphics/SVG/1.1/DTD/svg11.dtd"><svg t="1525918131800" class="icon" style="" viewBox="0 0 1024 1024" version="1.1" xmlns="http://www.w3.org/2000/svg" p-id="1103" xmlns:xlink="http://www.w3.org/1999/xlink" width="200" height="200"><defs><style type="text/css"></style></defs><path d="M662.755556 799.288889h-284.444445v142.222222h-256v56.888889h796.444445v-56.888889h-256zM924.444444 31.288889H116.622222c-45.511111 0-79.644444 34.133333-79.644444 79.644444v526.222223c0 42.666667 36.977778 79.644444 79.644444 79.644444h804.977778c45.511111 0 79.644444-34.133333 79.644444-79.644444V110.933333c2.844444-42.666667-34.133333-79.644444-76.8-79.644444z m25.6 605.866667c0 14.222222-11.377778 25.6-25.6 25.6H116.622222c-14.222222 0-25.6-11.377778-25.6-25.6V110.933333c0-14.222222 11.377778-25.6 25.6-25.6h804.977778c14.222222 0 25.6 11.377778 25.6 25.6v526.222223z" p-id="1104"></path><path d="M691.2 457.955556h-398.222222v-113.777778h56.888889v-170.666667h-170.666667v170.666667h56.888889v170.666666h455.111111v56.888889h170.666667v-170.666666h-170.666667zM548.977778 201.955556h312.888889v56.888888h-312.888889z" p-id="1105"></path></svg>