<?xml version="1.0" standalone="no"?><!DOCTYPE svg PUBLIC "-//W3C//DTD SVG 1.1//EN" "http://www.w3.org/Graphics/SVG/1.1/DTD/svg11.dtd"><svg t="1525918421266" class="icon" style="" viewBox="0 0 1024 1024" version="1.1" xmlns="http://www.w3.org/2000/svg" p-id="1792" xmlns:xlink="http://www.w3.org/1999/xlink" width="200" height="200"><defs><style type="text/css"></style></defs><path d="M907.377778 839.111111c-36.977778 0-68.266667 22.755556-79.644445 56.888889H193.422222c-8.533333-22.755556-28.444444-42.666667-51.2-51.2V170.666667c34.133333-11.377778 56.888889-42.666667 56.888889-79.644445 0-48.355556-36.977778-85.333333-85.333333-85.333333s-85.333333 36.977778-85.333334 85.333333c0 36.977778 22.755556 68.266667 56.888889 79.644445v674.133333c-34.133333 11.377778-56.888889 42.666667-56.888889 79.644444 0 48.355556 36.977778 85.333333 85.333334 85.333334 36.977778 0 68.266667-22.755556 79.644444-56.888889h637.155556c11.377778 34.133333 42.666667 56.888889 79.644444 56.888889 48.355556 0 85.333333-36.977778 85.333334-85.333334s-39.822222-85.333333-88.177778-85.333333z" p-id="1793"></path><path d="M822.044444 773.688889h56.888889v-654.222222h-625.777777v56.888889h568.888888z" p-id="1794"></path><path d="M668.444444 773.688889h56.888889V281.6H253.155556v56.888889h415.288888z" p-id="1795"></path><path d="M512 773.688889h56.888889V446.577778H253.155556v56.888889H512z" p-id="1796"></path></svg>