<?xml version="1.0" standalone="no"?><!DOCTYPE svg PUBLIC "-//W3C//DTD SVG 1.1//EN" "http://www.w3.org/Graphics/SVG/1.1/DTD/svg11.dtd"><svg t="1525933715796" class="icon" style="" viewBox="0 0 1024 1024" version="1.1" xmlns="http://www.w3.org/2000/svg" p-id="4738" xmlns:xlink="http://www.w3.org/1999/xlink" width="200" height="200"><defs><style type="text/css"></style></defs><path d="M938.4192 124.68736H82.99008a30.99648 30.99648 0 0 0-31.06816 30.91968v559.77472a30.99136 30.99136 0 0 0 30.91968 31.06816h130.6368a31.27808 31.27808 0 0 0 24.20736-11.52512l173.85984-215.53664 79.35488 65.50528c12.68736 10.48064 31.32928 9.1904 42.58816-2.85184l154.31168-166.48192c15.01696 9.1904 32.61952 14.37184 51.52256 14.37184 54.7584 0 99.42016-44.53376 99.42016-99.42016 0-54.89152-44.52864-99.42016-99.42016-99.42016-54.7584 0-99.42016 44.52864-99.42016 99.42016 0 13.20448 2.59072 25.89184 7.37792 37.41184l-139.42272 150.2976L426.94656 451.4304c-6.34368-5.30944-14.62784-7.76704-22.912-6.99392-8.28928 0.77824-15.7952 4.92032-21.10464 11.39712l-184.21248 228.48512H114.05824V186.8288h793.1648v497.49504h-428.4928a30.98624 30.98624 0 0 0-31.06816 30.91456v152.51968h-182.528a30.99136 30.99136 0 0 0-31.06816 31.06304 30.99648 30.99648 0 0 0 31.06816 31.06816h417.74592a30.99136 30.99136 0 0 0 31.06816-31.06816 30.99136 30.99136 0 0 0-31.06816-31.06304H509.7984v-121.29792h428.4928a30.98112 30.98112 0 0 0 31.06816-30.91456V155.75552c0.13312-17.21344-13.8496-31.06816-30.94016-31.06816z m-199.10144 168.4224a37.29408 37.29408 0 0 1 37.28384 37.28384 37.29408 37.29408 0 0 1-37.28384 37.28384 37.28896 37.28896 0 0 1-37.27872-37.28384 37.28896 37.28896 0 0 1 37.27872-37.28384z" fill="" p-id="4739"></path></svg>