<?xml version="1.0" standalone="no"?><!DOCTYPE svg PUBLIC "-//W3C//DTD SVG 1.1//EN" "http://www.w3.org/Graphics/SVG/1.1/DTD/svg11.dtd"><svg class="icon" width="200px" height="200.00px" viewBox="0 0 1024 1024" version="1.1" xmlns="http://www.w3.org/2000/svg"><path d="M128.538003 128.537492l0 702.456726 766.923994 0 1.023306-703.480033L128.538003 128.537492zM831.508429 768.06805 191.468265 768.06805l0-447.665763 641.063471-1.023306L831.508429 768.06805z" fill="#3f81c1" /><path d="M256.122797 383.809409l190.833303 0 0 63.953567-190.833303 0 0-63.953567Z" fill="#3f81c1" /><path d="M256.122797 511.488347l190.833303 0 0 63.953567-190.833303 0 0-63.953567Z" fill="#3f81c1" /><path d="M256.122797 639.908158l190.833303 0 0 63.953567-190.833303 0 0-63.953567Z" fill="#3f81c1" /><path d="M576.398194 383.949602l191.856609 0 0 63.953567-191.856609 0 0-63.953567Z" fill="#3f81c1" /><path d="M576.398194 511.62854l191.856609 0 0 63.953567-191.856609 0 0-63.953567Z" fill="#3f81c1" /><path d="M576.398194 640.048351l191.856609 0 0 63.954591-191.856609 0 0-63.954591Z" fill="#3f81c1" /></svg>