<?xml version="1.0" standalone="no"?><!DOCTYPE svg PUBLIC "-//W3C//DTD SVG 1.1//EN" "http://www.w3.org/Graphics/SVG/1.1/DTD/svg11.dtd"><svg t="1543307553284" class="icon" style="" viewBox="0 0 1024 1024" version="1.1" xmlns="http://www.w3.org/2000/svg" p-id="52420" xmlns:xlink="http://www.w3.org/1999/xlink" width="200" height="200"><defs><style type="text/css"></style></defs><path d="M755.2 435.2c147.2 0 268.8-51.2 268.8-102.4v-44.8c0-51.2-121.6-96-268.8-96H704V0L0 128v768l704 128v-185.6h51.2c147.2 0 268.8-64 268.8-128v-64c0-6.4-6.4-12.8-12.8 0-32 44.8-134.4 76.8-256 76.8H704v-76.8h51.2c147.2 0 268.8-51.2 268.8-115.2V454.4c0-6.4-6.4-6.4-12.8 0-32 44.8-134.4 70.4-256 70.4H704V428.8c19.2 0 32 6.4 51.2 6.4zM198.4 556.8v-57.6h140.8v134.4c-12.8 12.8-32 25.6-57.6 38.4s-51.2 12.8-83.2 12.8-64-6.4-89.6-19.2c-25.6-12.8-44.8-38.4-57.6-64S32 544 32 512c0-32 6.4-64 19.2-89.6 12.8-25.6 38.4-44.8 64-64 19.2-12.8 44.8-19.2 76.8-19.2 38.4 0 70.4 6.4 96 25.6 32 19.2 44.8 44.8 51.2 70.4l-64 12.8c-6.4-12.8-19.2-25.6-32-38.4-12.8-6.4-25.6-12.8-44.8-12.8-32 0-51.2 12.8-70.4 32s-25.6 44.8-25.6 76.8c0 44.8 6.4 70.4 25.6 89.6s38.4 32 70.4 32c12.8 0 25.6 0 44.8-6.4 12.8-6.4 19.2-12.8 32-25.6v-38.4H198.4z m192-211.2h134.4c25.6 0 44.8 0 57.6 6.4s25.6 6.4 32 12.8 19.2 12.8 25.6 25.6c6.4 12.8 12.8 25.6 12.8 38.4 0 12.8-6.4 32-12.8 44.8-12.8 12.8-19.2 19.2-38.4 25.6 19.2 6.4 38.4 12.8 44.8 32 12.8 12.8 19.2 32 19.2 51.2 0 12.8-6.4 32-12.8 44.8s-19.2 25.6-25.6 32-25.6 12.8-44.8 12.8h-192V345.6z m64 57.6v76.8h96c12.8 0 19.2-6.4 25.6-12.8 6.4-6.4 6.4-19.2 6.4-25.6 0-12.8 0-19.2-6.4-25.6-6.4-6.4-12.8-12.8-25.6-12.8H454.4z m0 128v89.6h108.8c12.8 0 19.2-6.4 25.6-12.8 6.4-6.4 6.4-19.2 6.4-32s0-19.2-6.4-25.6c-6.4-6.4-12.8-6.4-19.2-12.8-12.8 0-32-6.4-57.6-6.4h-57.6z" fill="" p-id="52421"></path></svg>