<?xml version="1.0" standalone="no"?><!DOCTYPE svg PUBLIC "-//W3C//DTD SVG 1.1//EN" "http://www.w3.org/Graphics/SVG/1.1/DTD/svg11.dtd"><svg class="icon" width="200px" height="200.00px" viewBox="0 0 1024 1024" version="1.1" xmlns="http://www.w3.org/2000/svg"><path d="M120.405333 607.061333A12.8 12.8 0 0 1 110.933333 585.386667l47.274667-49.237334a12.8 12.8 0 0 1 18.432 17.749334l-47.274667 49.237333a12.8 12.8 0 0 1-8.96 3.925333z m257.024-55.978666a12.8 12.8 0 0 1-8.533333-22.357334l51.2-45.653333a12.8 12.8 0 0 1 17.066667 19.029333l-51.2 45.653334a12.714667 12.714667 0 0 1-8.533334 3.413333z m-38.4-24.405334a12.714667 12.714667 0 0 1-8.533333-3.242666l-51.2-45.226667a12.8 12.8 0 1 1 17.066667-19.2l51.2 45.226667a12.8 12.8 0 0 1-8.533334 22.357333z m-135.850666-5.717333a12.8 12.8 0 0 1-9.216-21.674667l47.274666-49.237333a12.8 12.8 0 0 1 18.432 17.749333l-47.274666 49.237334a12.8 12.8 0 0 1-9.216 3.925333z m263.082666-49.664a12.8 12.8 0 0 1-8.533333-22.357333l51.2-45.653334a12.8 12.8 0 1 1 17.066667 19.029334l-51.2 45.653333a12.714667 12.714667 0 0 1-8.533334 3.328z" fill="#e8989a" /><path d="M547.072 388.096m-34.133333 0a34.133333 34.133333 0 1 0 68.266666 0 34.133333 34.133333 0 1 0-68.266666 0Z" fill="#e8989a" /><path d="M882.261333 913.066667a34.133333 34.133333 0 0 1-24.149333-9.984L692.394667 737.194667a34.133333 34.133333 0 0 1 48.298666-48.298667l165.802667 165.802667a34.133333 34.133333 0 0 1-24.149333 58.282666z" fill="#1296db" /><path d="M481.194667 844.8A365.738667 365.738667 0 0 1 221.866667 737.194667a34.133333 34.133333 0 0 1 48.298666-48.298667 298.666667 298.666667 0 1 0 0-422.4A34.133333 34.133333 0 0 1 221.866667 218.282667 366.933333 366.933333 0 1 1 481.194667 844.8z" fill="#1296db" /></svg>