<?xml version="1.0" standalone="no"?><!DOCTYPE svg PUBLIC "-//W3C//DTD SVG 1.1//EN" "http://www.w3.org/Graphics/SVG/1.1/DTD/svg11.dtd"><svg t="1544081638381" class="icon" style="" viewBox="0 0 1024 1024" version="1.1" xmlns="http://www.w3.org/2000/svg" p-id="3775" xmlns:xlink="http://www.w3.org/1999/xlink" width="200" height="200"><defs><style type="text/css"></style></defs><path d="M946.85 86.87c-9.06-12.08-21.48-18.72-37-19.8-11.66-0.81-22 2.52-32.31 7.3Q826 98.4 774.37 122.19c-30.52 14.05-61.11 27.94-91.65 41.92q-27 12.33-53.89 24.74-51.15 23.6-102.28 47.26-47.49 21.87-95 43.64-49 22.53-97.91 45.12T235.68 370q-48.23 22.19-96.49 44.31c-11.43 5.24-23 10.09-34.29 15.68-7.53 3.75-15.47 7.47-21.66 13A52.33 52.33 0 0 0 66 478.45v8.28c1.18 16.54 9.58 32.62 24.86 42.14 24.39 15.19 48.2 31.33 72.25 47.06q61.13 39.93 122.21 79.93c1.33 0.87 3 2.43 3.09 3.78 0.95 12.68 1.63 25.38 2.34 38.09q1.14 20.7 2.19 41.41c0.77 15.63 1.46 31.27 2.22 46.91 0.71 14.54 1.53 29.07 2.18 43.61 0.77 17.47 1.39 35 2.12 53.49 0.36 5.84 1.14 12.74 1.13 19.63 0 16.74 5.28 30.9 17.66 42.69 15.77 15 43.63 18.41 61.35 5.48 18.91-13.81 37.09-28.65 55.47-43.17s36.63-29.31 55-43.9c19.2-15.27 38.6-30.27 57.63-45.75 4.91-4 8.67-4.19 14.16-1.17 32 17.59 64.21 34.8 96.33 52.17s64.23 34.74 96.35 52.11c13.77 7.45 27.42 15.13 41.33 22.29 13.2 6.8 25.84 14.63 42 13.58 20.39-1.31 38.32-14.81 45.33-33 4.59-11.87 3.95-24.48 5.38-36.78 1.14-9.72 1.46-19.53 2.37-29.28 1.33-14.22 3-28.41 4.29-42.62 0.91-9.93 1.41-19.9 2.29-29.84 1.36-15.32 2.93-30.61 4.33-45.93 0.83-9 1.46-18.05 2.3-27.07 1.39-15 2.94-29.88 4.3-44.83 0.87-9.57 1.44-19.17 2.29-28.74 1.38-15.31 2.92-30.61 4.32-45.92 0.84-9 1.46-18.06 2.32-27.09 1.37-14.57 2.93-29.13 4.28-43.72 0.89-9.56 1.41-19.16 2.31-28.73 1.34-14.22 3-28.4 4.29-42.62 0.92-9.93 1.42-19.9 2.31-29.84 1.35-15.31 2.92-30.61 4.31-45.92 0.85-9.39 1.44-18.8 2.31-28.19 1.37-14.76 2.93-29.5 4.29-44.27 0.87-9.39 1.45-18.79 2.3-28.19 1.38-15.12 2.93-30.24 4.31-45.37 0.85-9.2 1.43-18.43 2.33-27.63 1.35-13.85 3-27.67 4.26-41.53 0.94-10.11 0.77-20.38 2.43-30.35 2.65-15.94-0.85-30.26-10.29-42.82z m-66.73 94c-0.58 6.28-1.78 12.49-2.31 18.77-1.77 20.77-3.32 41.55-5 62.32q-1.71 20.44-3.71 40.85c-2 20.09-4.22 40.15-6.11 60.23-1.09 11.61-1.54 23.27-2.62 34.88-1.44 15.63-3.34 31.2-4.83 46.83-1 11-1.58 22-2.6 33-1.5 16.23-3.32 32.44-4.83 48.67-1 10.79-1.62 21.62-2.61 32.41-1.52 16.44-3.29 32.86-4.83 49.3-1 10.38-1.67 20.78-2.61 31.16-1.58 17.47-20.11 199.56-21.43 216.09-5.19-2.53-10.08-4.73-14.8-7.25-15-8-29.95-16.25-44.95-24.34Q701.7 794 646.53 764.3c-25.18-13.57-50.29-27.3-75.53-40.69-17.48-9.3-45.45-7.9-61.24 4.84-24.51 19.81-49.6 38.88-74.31 58.43-19.61 15.52-39 31.31-59.18 47.53-0.56-5.95-1.29-11.29-1.52-16.63-0.93-21.57-1.63-43.14-2.56-64.7-0.7-16.19-1.64-32.37-2.45-48.56-0.84-17.21-1.4-34.45-2.58-51.65a250.66 250.66 0 0 0-3.73-30.87c-2.9-14.95-12-26.13-24.4-34.44-16.47-11.07-33.28-21.62-49.92-32.41Q237.36 521.62 185.66 488a27.83 27.83 0 0 1-2.91-2.63c10.31-5 55.91-30 67.5-35.29q59.07-27.24 118.07-54.64c21.69-10.06 43.35-20.18 65.08-30.16 38.29-17.59 76.65-35 114.93-52.63q58.54-26.9 117-54 30.07-13.87 60.19-27.7 56.06-25.78 112.11-51.54c14.31-6.58 28.67-13.07 43.79-19.95-0.46 7.65-0.7 14.51-1.32 21.35z m-142 132.89c-12.78-0.11-22 2.71-29.49 9.82-5.61 5.35-10.78 11.17-16.06 16.86Q671 363.69 649.52 387q-15.15 16.46-30.29 33-21.5 23.31-43 46.59-15.16 16.45-30.29 33-16.09 17.41-32.2 34.79c-9.48 10.18-19.1 20.25-28.59 30.43a112.88 112.88 0 0 0-9.54 11c-9.63 13.45-11.55 27.94-5.51 43.52 7.89 20.32 28.4 29.51 47.32 25.71 11.06-2.23 19.29-8.68 26.57-17.28 10.29-12.19 21.53-23.56 32.36-35.3q15.63-17 31.24-33.91t31.23-33.92q15.78-17.11 31.55-34.22l31.87-34.56q15.76-17.1 31.55-34.22c10.31-11.2 20.5-22.51 31-33.57 10.1-10.7 14.07-23 12.18-37.7-2.59-20.21-20.31-37.06-38.83-36.62z" p-id="3776"></path></svg>