<?xml version="1.0" standalone="no"?><!DOCTYPE svg PUBLIC "-//W3C//DTD SVG 1.1//EN" "http://www.w3.org/Graphics/SVG/1.1/DTD/svg11.dtd"><svg class="icon" width="200px" height="200.00px" viewBox="0 0 1024 1024" version="1.1" xmlns="http://www.w3.org/2000/svg"><path d="M954.181818 628.363636C915.618909 628.363636 884.363636 597.108364 884.363636 558.545455 884.363636 519.982545 915.618909 488.727273 954.181818 488.727273 992.744727 488.727273 1024 519.982545 1024 558.545455 1024 597.108364 992.744727 628.363636 954.181818 628.363636ZM884.363636 395.636364C858.647273 395.636364 837.818182 374.807273 837.818182 349.090909 837.818182 323.374545 858.647273 302.545455 884.363636 302.545455 910.056727 302.545455 930.909091 323.374545 930.909091 349.090909 930.909091 374.807273 910.056727 395.636364 884.363636 395.636364ZM930.909091 768C930.909091 819.409455 889.227636 861.090909 837.818182 861.090909 786.408727 861.090909 744.727273 819.409455 744.727273 768 744.727273 716.590545 786.408727 674.909091 837.818182 674.909091 889.227636 674.909091 930.909091 716.590545 930.909091 768ZM581.818182 372.363636C478.999273 372.363636 395.636364 289.000727 395.636364 186.181818 395.636364 83.362909 478.999273 0 581.818182 0 684.637091 0 768 83.362909 768 186.181818 768 289.000727 684.637091 372.363636 581.818182 372.363636ZM279.272727 884.363636C202.146909 884.363636 139.636364 821.853091 139.636364 744.727273 139.636364 667.601455 202.146909 605.090909 279.272727 605.090909 356.398545 605.090909 418.909091 667.601455 418.909091 744.727273 418.909091 821.853091 356.398545 884.363636 279.272727 884.363636ZM162.909091 535.272727C72.936727 535.272727 0 462.336 0 372.363636 0 282.391273 72.936727 209.454545 162.909091 209.454545 252.881455 209.454545 325.818182 282.391273 325.818182 372.363636 325.818182 462.336 252.881455 535.272727 162.909091 535.272727ZM581.818182 791.272727C646.074182 791.272727 698.181818 843.357091 698.181818 907.636364 698.181818 971.892364 646.074182 1024 581.818182 1024 517.538909 1024 465.454545 971.892364 465.454545 907.636364 465.454545 843.357091 517.538909 791.272727 581.818182 791.272727Z" fill="#1296db" /></svg>