<?xml version="1.0" standalone="no"?><!DOCTYPE svg PUBLIC "-//W3C//DTD SVG 1.1//EN" "http://www.w3.org/Graphics/SVG/1.1/DTD/svg11.dtd"><svg t="1525918150546" class="icon" style="" viewBox="0 0 1024 1024" version="1.1" xmlns="http://www.w3.org/2000/svg" p-id="1332" xmlns:xlink="http://www.w3.org/1999/xlink" width="200" height="200"><defs><style type="text/css"></style></defs><path d="M207.644444 372.622222h170.666667c48.355556 0 85.333333-36.977778 85.333333-85.333333v-170.666667c0-48.355556-36.977778-85.333333-85.333333-85.333333h-170.666667c-48.355556 0-85.333333 36.977778-85.333333 85.333333v170.666667c0 48.355556 39.822222 85.333333 85.333333 85.333333z m-28.444444-256c0-17.066667 11.377778-28.444444 28.444444-28.444444h170.666667c17.066667 0 28.444444 11.377778 28.444445 28.444444v170.666667c0 17.066667-11.377778 28.444444-28.444445 28.444444h-170.666667c-17.066667 0-28.444444-11.377778-28.444444-28.444444v-170.666667zM850.488889 657.066667h-204.8c-36.977778 0-68.266667 31.288889-68.266667 68.266666v204.8c0 36.977778 31.288889 68.266667 68.266667 68.266667h204.8c36.977778 0 68.266667-31.288889 68.266667-68.266667v-204.8c0-36.977778-31.288889-68.266667-68.266667-68.266666zM859.022222 475.022222h-39.822222l71.111111 122.311111 71.111111-122.311111h-45.511111c-19.911111-201.955556-190.577778-358.4-395.377778-358.4v56.888889c173.511111 0 318.577778 133.688889 338.488889 301.511111zM182.044444 557.511111h39.822223l-71.111111-122.311111-71.111112 122.311111h45.511112c19.911111 199.111111 190.577778 355.555556 395.377777 355.555556v-56.888889c-173.511111 0-318.577778-130.844444-338.488889-298.666667z" p-id="1333"></path></svg>