<?xml version="1.0" standalone="no"?><!DOCTYPE svg PUBLIC "-//W3C//DTD SVG 1.1//EN" "http://www.w3.org/Graphics/SVG/1.1/DTD/svg11.dtd"><svg t="1557209192938" class="icon" style="" viewBox="0 0 1024 1024" version="1.1" xmlns="http://www.w3.org/2000/svg" p-id="33931" xmlns:xlink="http://www.w3.org/1999/xlink" width="128" height="128"><defs><style type="text/css"></style></defs><path d="M128 192h768v704H128z" fill="#E8F2FF" p-id="33932"></path><path d="M64 896V192a64 64 0 0 1 64-64h768a64 64 0 0 1 64 64v704a64 64 0 0 1-64 64H128a64 64 0 0 1-64-64z m64-192v192h768v-192H128z m0-64h768V448H128v192z m0-256h768V192H128v192z m96-128a32 32 0 1 1 0 64 32 32 0 0 1 0-64z m0 256a32 32 0 1 1 0 64 32 32 0 0 1 0-64z m0 256a32 32 0 1 1 0 64 32 32 0 0 1 0-64z m128-512h128a32 32 0 0 1 0 64h-128a32 32 0 0 1 0-64z m0 256h128a32 32 0 0 1 0 64h-128a32 32 0 0 1 0-64z m0 256h128a32 32 0 1 1 0 64h-128a32 32 0 1 1 0-64z" fill="#4A90E2" p-id="33933"></path></svg>