<?xml version="1.0" standalone="no"?><!DOCTYPE svg PUBLIC "-//W3C//DTD SVG 1.1//EN" "http://www.w3.org/Graphics/SVG/1.1/DTD/svg11.dtd"><svg t="1558503469779" class="icon" style="" viewBox="0 0 1024 1024" version="1.1" xmlns="http://www.w3.org/2000/svg" p-id="12025" xmlns:xlink="http://www.w3.org/1999/xlink" width="128" height="128"><defs><style type="text/css"></style></defs><path d="M426.666667 355.555556a42.666667 42.666667 0 0 1-42.666667 42.666666h-256a42.666667 42.666667 0 0 1 0-85.333333h152.689778L115.2 147.399111a42.666667 42.666667 0 1 1 60.359111-60.330667L341.333333 252.842667V99.555556a42.666667 42.666667 0 0 1 85.333334 0v256z m0 284.444444v256a42.666667 42.666667 0 0 1-85.333334 0v-152.689778L175.559111 909.084444A42.666667 42.666667 0 0 1 115.2 848.782222L281.315556 682.666667H128a42.666667 42.666667 0 0 1 0-85.333334h256a42.666667 42.666667 0 0 1 42.666667 42.666667z m199.111111-284.444444v-256a42.666667 42.666667 0 0 1 85.333333 0v167.68l180.195556-180.167112a42.666667 42.666667 0 1 1 60.302222 60.330667L786.176 312.888889H924.444444a42.666667 42.666667 0 0 1 0 85.333333h-256a42.666667 42.666667 0 0 1-42.666666-42.666666z m0 284.444444a42.666667 42.666667 0 0 1 42.666666-42.666667h256a42.666667 42.666667 0 0 1 0 85.333334h-157.098666l184.291555 184.291555a42.666667 42.666667 0 1 1-60.330666 60.330667L711.111111 747.121778V896a42.666667 42.666667 0 0 1-85.333333 0v-256z" p-id="12026"></path></svg>