<?xml version="1.0" standalone="no"?><!DOCTYPE svg PUBLIC "-//W3C//DTD SVG 1.1//EN" "http://www.w3.org/Graphics/SVG/1.1/DTD/svg11.dtd"><svg t="1525858825854" class="icon" style="" viewBox="0 0 1024 1024" version="1.1" xmlns="http://www.w3.org/2000/svg" p-id="5355" xmlns:xlink="http://www.w3.org/1999/xlink" width="200" height="200"><defs><style type="text/css"></style></defs><path d="M855.466667 0 168.533333 0C75.605333 0 0 75.605333 0 168.533333l0 686.890667C0 948.394667 75.605333 1024 168.533333 1024l686.933333 0c92.928 0 168.533333-75.605333 168.533333-168.576L1024 168.533333C1024 75.605333 948.394667 0 855.466667 0zM318.933333 490.666667 42.666667 490.666667l0-202.666667 276.266667 0L318.933333 490.666667zM361.6 288 981.333333 288 981.333333 490.666667 361.6 490.666667 361.6 288zM42.666667 533.333333l276.266667 0 0 202.688L42.666667 736.021333 42.666667 533.333333zM361.6 533.333333 981.333333 533.333333l0 202.688L361.6 736.021333 361.6 533.333333zM981.333333 168.533333l0 76.8L361.6 245.333333 361.6 45.866667c0-1.130667-0.469333-2.112-0.64-3.2L855.466667 42.666667C924.885333 42.666667 981.333333 99.114667 981.333333 168.533333zM168.533333 42.666667l151.061333 0c-0.170667 1.088-0.64 2.069333-0.64 3.2l0 199.466667L42.666667 245.333333 42.666667 168.533333C42.666667 99.114667 99.114667 42.666667 168.533333 42.666667zM42.666667 855.424l0-76.736 276.266667 0 0 199.445333c0 1.152 0.469333 2.133333 0.64 3.2L168.533333 981.333333C99.114667 981.333333 42.666667 924.885333 42.666667 855.424zM855.466667 981.333333 360.96 981.333333c0.170667-1.088 0.64-2.069333 0.64-3.2l0-199.445333L981.333333 778.688l0 76.736C981.333333 924.885333 924.885333 981.333333 855.466667 981.333333z" p-id="5356"></path></svg>