<?xml version="1.0" standalone="no"?><!DOCTYPE svg PUBLIC "-//W3C//DTD SVG 1.1//EN" "http://www.w3.org/Graphics/SVG/1.1/DTD/svg11.dtd"><svg class="icon" width="200px" height="200.00px" viewBox="0 0 1024 1024" version="1.1" xmlns="http://www.w3.org/2000/svg"><path d="M464.810667 450.645333v-93.866666h68.266666v25.6a68.266667 68.266667 0 0 1-68.266666 68.266666z" fill="#1296db" /><path d="M642.56 60.672H354.218667a51.2 51.2 0 0 0-51.2 51.2V307.2a51.2 51.2 0 0 0 51.2 51.2H642.56a51.2 51.2 0 0 0 51.2-51.2V111.872a51.2 51.2 0 0 0-51.2-51.2zM625.493333 290.133333H371.285333V128.938667H625.493333z" fill="#1296db" /><path d="M390.314667 221.866667v25.6h76.8v-25.6z m136.533333 0v25.6h76.8v-25.6z" fill="#d81e06" /><path d="M183.893333 499.029333a34.133333 34.133333 0 0 0-34.133333 34.133334V672.426667h-37.290667a51.2 51.2 0 0 0-51.2 51.2v162.133333a51.2 51.2 0 0 0 51.2 51.2h146.176a51.2 51.2 0 0 0 51.2-51.2v-162.133333a51.2 51.2 0 0 0-51.2-51.2h-40.618666V567.296h149.333333a68.266667 68.266667 0 0 0 68.266667-68.266667z m57.685334 241.664v128H129.536v-128zM952.746667 905.130667l-66.133334-66.133334a243.968 243.968 0 0 0-22.442666-320.085333 244.565333 244.565333 0 1 0-25.6 368.298667l66.133333 66.218666a34.133333 34.133333 0 0 0 48.298667-48.298666z m-136.533334-88.576A176.384 176.384 0 1 1 691.2 515.584a178.602667 178.602667 0 0 1 66.474667 12.885333 176.384 176.384 0 0 1 58.282666 288.085334z" fill="#1296db" /></svg>