<?xml version="1.0" standalone="no"?><!DOCTYPE svg PUBLIC "-//W3C//DTD SVG 1.1//EN" "http://www.w3.org/Graphics/SVG/1.1/DTD/svg11.dtd"><svg class="icon" width="200px" height="200.00px" viewBox="0 0 1024 1024" version="1.1" xmlns="http://www.w3.org/2000/svg"><path d="M857.6 556.8V160c0-38.4-32-70.4-70.4-70.4H230.4c-38.4 0-64 32-64 70.4v403.2H25.6v371.2h665.6c12.8 0 25.6-12.8 25.6-25.6s-12.8-25.6-25.6-25.6H70.4V608h211.2c38.4 96 128 153.6 230.4 153.6s192-64 230.4-153.6h211.2v275.2h-89.6c-12.8 0-25.6 12.8-25.6 25.6s12.8 25.6 25.6 25.6h134.4V556.8h-140.8z m-153.6 0l-6.4 19.2c-25.6 83.2-102.4 140.8-185.6 140.8S352 659.2 326.4 576L320 556.8H211.2V160c0-12.8 6.4-19.2 19.2-19.2h556.8c12.8 0 19.2 6.4 19.2 19.2v403.2H704z"  /><path d="M595.2 345.6H428.8v96H339.2l179.2 179.2 166.4-179.2H595.2zM428.8 256h166.4v57.6H428.8zM428.8 211.2h166.4v19.2H428.8z"  /></svg>