<?xml version="1.0" standalone="no"?><!DOCTYPE svg PUBLIC "-//W3C//DTD SVG 1.1//EN" "http://www.w3.org/Graphics/SVG/1.1/DTD/svg11.dtd"><svg t="1537405004429" class="icon" style="" viewBox="0 0 1024 1024" version="1.1" xmlns="http://www.w3.org/2000/svg" p-id="8626" xmlns:xlink="http://www.w3.org/1999/xlink" width="200" height="200"><defs><style type="text/css"></style></defs><path d="M746.755093 364.753153H435.915689c-13.45586 0-24.292795-10.927242-24.292795-24.292795s10.927242-24.292795 24.292795-24.292795H746.845401c13.45586 0 24.292795 10.927242 24.292795 24.292795s-10.927242 24.292795-24.383103 24.292795z" fill="#de5f5f" p-id="8627"></path><path d="M316.528794 340.460358m-36.935885 0a36.935885 36.935885 0 1 0 73.87177 0 36.935885 36.935885 0 1 0-73.87177 0Z" fill="#de5f5f" p-id="8628"></path><path d="M746.755093 532.725637H435.915689c-13.45586 0-24.292795-10.927242-24.292795-24.292795 0-13.45586 10.927242-24.292795 24.292795-24.292794H746.845401c13.45586 0 24.292795 10.927242 24.292795 24.292794 0 13.365553-10.927242 24.292795-24.383103 24.292795zM746.755093 717.314754H435.915689c-13.45586 0-24.292795-10.927242-24.292795-24.292794s10.927242-24.292795 24.292795-24.292795H746.845401c13.45586 0 24.292795 10.927242 24.292795 24.292795s-10.927242 24.292795-24.383103 24.292794z" fill="#de5f5f" p-id="8629"></path><path d="M316.528794 508.794074m-36.935885 0a36.935885 36.935885 0 1 0 73.87177 0 36.935885 36.935885 0 1 0-73.87177 0Z" fill="#de5f5f" p-id="8630"></path><path d="M316.528794 693.02196m-36.935885 0a36.935885 36.935885 0 1 0 73.87177 0 36.935885 36.935885 0 1 0-73.87177 0Z" fill="#de5f5f" p-id="8631"></path><path d="M789.019137 964.848399H271.194285c-61.951142 0-112.342887-50.391745-112.342887-112.342887V190.639739c0-61.951142 50.391745-112.342887 112.342887-112.342887h517.91516c61.951142 0 112.342887 50.391745 112.342888 112.342887 0 13.45586-10.927242 24.292795-24.292795 24.292795-13.45586 0-24.292795-10.927242-24.292795-24.292795 0-35.129729-28.627569-63.757298-63.757298-63.757298H271.194285c-35.129729 0-63.757298 28.627569-63.757298 63.757298V852.505512c0 35.129729 28.627569 63.757298 63.757298 63.757298h517.91516c35.129729 0 63.757298-28.627569 63.757298-63.757298V508.794074c0-13.45586 10.927242-24.292795 24.292795-24.292795 13.45586 0 24.292795 10.927242 24.292795 24.292795V852.505512c0 61.951142-50.391745 112.342887-112.433196 112.342887z" fill="#de5f5f" p-id="8632"></path></svg>