<?xml version="1.0" standalone="no"?><!DOCTYPE svg PUBLIC "-//W3C//DTD SVG 1.1//EN" "http://www.w3.org/Graphics/SVG/1.1/DTD/svg11.dtd"><svg class="icon" width="200px" height="65.47px" viewBox="0 0 3128 1024" version="1.1" xmlns="http://www.w3.org/2000/svg"><path d="M1690.00288748 30.50160877c-71.68438193 15.09050801-83.00315669 27.16541698-95.07627814 94.32193151-10.56442813 61.87608799-10.56442813 110.17036124 0.75434663 154.68932617 21.12885628 84.5154251 64.89347458 119.22430854 172.04466171 136.57964406 54.33083398 9.05573484 87.53102415 21.8832029 125.26086925 49.04861992 51.31165986 36.97371091 72.44051614 74.70355607 89.79585165 156.9523661 2.26303995 12.07312143 8.29960065 21.12885628 13.58181471 21.1288563 12.82746807-0.75434666 110.16857371-132.80612329 138.84268399-190.15434385 29.43024448-58.10256721 40.74901925-99.60593311 45.27509914-165.25375432 8.30138819-126.0152159-68.66699534-219.58280076-210.52885346-256.55829924-68.66699534-18.10968214-196.9452512-18.10968214-279.94840793-0.75434665z" fill="#13227a" /><path d="M1484.75803564 102.1859907c-28.67411029 16.60098885-30.18459111 18.86581634-36.22115185 65.64960877-12.82746807 107.90553376 3.01917415 191.66303713 44.52075248 230.14722889 30.93715023 28.67411029 122.24169513 64.13912795 164.49940769 64.13912794 53.5746998 0 124.50652262 53.57648733 155.44367286 116.20692194 18.8640288 40.74723171 32.44763105 130.54308333 25.6567237 173.553355l-4.52786743 30.18280358 21.12885628-13.58181473c46.78379244-30.18280358 55.83773973-43.01205919 55.83773972-80.74011679 0-50.55731321-18.8640288-117.71561525-41.50157835-147.14407217-23.39189621-30.18280358-68.66699534-57.34822057-124.50652264-74.70355607-95.07627815-29.42845692-110.92292034-36.21936428-135.82529738-55.08518062-32.44584351-24.14624285-41.50157837-34.71067099-59.61126052-73.19307522-21.8832029-46.78557999-33.95632436-125.26086928-27.91976363-193.17351797 3.01917415-33.20197772 2.26303995-59.61304804-0.75434664-59.61304807-3.77173322 0-19.62016298 8.30138819-36.21936429 17.35712308z" fill="#d81e06" /><path d="M1367.79676704 156.5168247c-5.28221406 6.0365607-13.58181471 11.31877479-18.86402879 11.31877477-33.20197772 0-43.76640585 91.30454491-23.39189624 191.66303713 9.80829394 45.27509911 15.84485465 55.83952726 44.52075251 83.7592909 33.20019015 30.93715023 109.41422706 64.13912795 148.65276548 64.13912792 41.50157837 0 100.35849222 26.41107036 135.06916319 61.12174134 46.02944578 46.02944578 61.12174132 96.58675898 61.12174134 200.71877197 0 52.82214068 3.0173866 77.7227302 8.29960066 77.7227302s20.37450962-7.54704156 35.46501764-16.60098884l26.41107034-15.84664222-3.77173321-92.05889155c-4.52786742-95.0780657-11.32056235-119.22430854-46.02944579-159.97154026-21.12885628-24.9005895-89.79585163-55.08518064-125.26086926-55.08518064-15.09229556 0-33.95632436-5.28221406-41.50336591-11.31877478-8.29960065-6.0365607-21.12885628-11.31877479-28.67232274-11.31877476-22.6393371 0-67.91443626-26.40928281-93.56937238-54.32904646-49.80117901-54.33083398-52.0660065-61.12174132-52.82214071-175.81818248-1.50869329-103.37766637-6.03477316-121.48734849-25.65493613-98.09545224z" fill="#d81e06" /><path d="M1215.37048076 261.40318431c-19.61837543 18.86581634-27.91797607 34.71067099-30.93715021 57.34822056-5.28221406 38.48419178 6.0365607 114.69644111 21.12885627 143.37055143 27.16362943 53.57648733 100.35849222 89.04150496 230.90157557 113.1877478 45.27509911 8.30138819 92.05889156 37.72984512 119.22430853 75.45790274 29.42845692 40.74723171 43.01205919 126.0152159 30.93715023 199.21007867-10.56442813 64.89526214-4.52607986 72.44051614 35.46501763 47.53992663l30.1845911-18.86581634-1.50869327-101.11283887c-1.51048084-85.26798421-3.77352078-105.64249383-17.35712305-131.29742998-17.35354796-33.95632436-60.36560714-70.93003527-83.0031567-70.93003527-8.29960065 0-27.16541698-5.28400162-41.50157837-11.32056233-15.09229556-6.0365607-36.97549851-11.31877479-49.0486199-11.31877478-58.10256721 0-146.38793797-64.13912795-181.09860898-132.05177665-16.60098885-32.44763105-19.62016298-47.53813906-19.62016299-110.92292035-0.75434666-48.29427325-3.77173322-73.95099697-9.0539473-73.95099696-4.52786742 0-20.37450962 11.32056235-34.71245856 25.6567237z m1469.92845347 43.76640586c-6.79269492 3.77173322-12.07312143 16.60098885-12.07312139 27.91976361" fill="#d81e06" /><path d="M1069.73688944 399.49152165c-33.95632436 39.99288507-79.23142349 106.39684046-79.23142349 115.45257532 0 3.0173866-5.28221406 9.80829394-11.3187748 15.09050802s-11.31877479 16.60098885-11.31877478 25.6567237c0 9.0539473-3.77173322 20.37272208-8.29960063 24.90058951-9.05573484 9.05573484-29.42845692 101.86897305-30.18459115 138.08833732-0.75434666 41.50336592 21.12885628 112.43340119 43.76640584 141.86185814 32.44763105 43.01205919 42.25771258 50.55731321 93.56758486 76.21224935 59.61304804 29.43024448 136.57964405 46.02944578 210.52885346 46.02944579 75.45790269-0.75434666 193.17351795-24.14624285 211.28320012-42.25592502 14.33616135-13.58181471 25.65672372-65.64782122 35.46501764-158.46284696 9.05573484-90.55019828-35.46501764-144.87924468-133.56046991-162.2345802-80.74011678-13.58181471-130.54308333-32.44763105-186.38261062-69.42134201-50.55552564-33.20197772-72.43872858-67.15830205-81.4944634-128.28004337-4.52786742-29.42845692-11.31877479-54.32904643-15.84664222-55.83773973-3.77173322-1.51048084-20.37272208 13.58181471-36.97371092 33.20019014z m4759.15332276 57.34822058c-9.05573484 9.81008149-16.60098885 21.12885628-16.60098883 26.41107035" fill="#13227a" /></svg>