<?xml version="1.0" standalone="no"?><!DOCTYPE svg PUBLIC "-//W3C//DTD SVG 1.1//EN" "http://www.w3.org/Graphics/SVG/1.1/DTD/svg11.dtd"><svg t="1529484605617" class="icon" style="" viewBox="0 0 1024 1024" version="1.1" xmlns="http://www.w3.org/2000/svg" p-id="1200" xmlns:xlink="http://www.w3.org/1999/xlink" width="200" height="200"><defs><style type="text/css"></style></defs><path d="M504.868571 606.171429m-231.131428 0a231.131429 231.131429 0 1 0 462.262857 0 231.131429 231.131429 0 1 0-462.262857 0Z" fill="#FFFFFF" p-id="1201"></path><path d="M721.92 651.702857c0 94.72-97.097143 171.52-217.051429 171.52s-217.051429-76.8-217.051428-171.52z" fill="#EAEAEA" p-id="1202"></path><path d="M504.868571 877.714286A272.274286 272.274286 0 1 1 777.142857 606.171429 272.64 272.64 0 0 1 504.868571 877.714286z m0-489.691429A217.417143 217.417143 0 1 0 722.285714 606.171429a217.6 217.6 0 0 0-217.417143-217.417143z" fill="#808080" p-id="1203"></path><path d="M504.868571 210.285714m-76.617142 0a76.617143 76.617143 0 1 0 153.234285 0 76.617143 76.617143 0 1 0-153.234285 0Z" fill="#808080" p-id="1204"></path><path d="M847.725714 804.205714m-76.434285 0a76.434286 76.434286 0 1 0 152.868571 0 76.434286 76.434286 0 1 0-152.868571 0Z" fill="#808080" p-id="1205"></path><path d="M162.011429 804.205714m-76.434286 0a76.434286 76.434286 0 1 0 152.868571 0 76.434286 76.434286 0 1 0-152.868571 0Z" fill="#808080" p-id="1206"></path><path d="M504.868571 382.72a27.428571 27.428571 0 0 1-27.428571-27.428571v-73.142858a27.428571 27.428571 0 0 1 54.857143 0v73.142858a27.428571 27.428571 0 0 1-27.428572 27.428571zM847.725714 831.634286a29.074286 29.074286 0 0 1-13.714285-3.657143l-130.742858-75.52a27.428571 27.428571 0 1 1 27.428572-47.542857l130.742857 75.52a27.428571 27.428571 0 0 1-13.714286 51.2zM162.011429 831.634286a27.428571 27.428571 0 0 1-13.714286-51.2l125.805714-73.142857a27.428571 27.428571 0 1 1 27.428572 47.542857l-125.805715 73.142857a29.074286 29.074286 0 0 1-13.714285 3.657143z" fill="#808080" p-id="1207"></path></svg>