<?xml version="1.0" standalone="no"?><!DOCTYPE svg PUBLIC "-//W3C//DTD SVG 1.1//EN" "http://www.w3.org/Graphics/SVG/1.1/DTD/svg11.dtd"><svg t="1525915331536" class="icon" style="" viewBox="0 0 1024 1024" version="1.1" xmlns="http://www.w3.org/2000/svg" p-id="10716" xmlns:xlink="http://www.w3.org/1999/xlink" width="200" height="200"><defs><style type="text/css"></style></defs><path d="M62.577778 213.333333h711.111111v275.911111h56.888889V156.444444H5.688889v739.555556h369.777778v-56.888889h-312.888889zM756.622222 773.688889c-34.133333 0-62.577778 28.444444-62.577778 65.422222 0 34.133333 28.444444 65.422222 62.577778 65.422222 34.133333 0 62.577778-28.444444 62.577778-65.422222 2.844444-34.133333-25.6-65.422222-62.577778-65.422222z" p-id="10717"></path><path d="M756.622222 668.444444c-167.822222 0-256 170.666667-256 170.666667s65.422222 170.666667 256 170.666667c173.511111 0 256-170.666667 256-170.666667s-85.333333-170.666667-256-170.666667z m0 278.755556c-62.577778 0-105.244444-45.511111-105.244444-108.088889 0-59.733333 45.511111-105.244444 105.244444-105.244444 62.577778 0 105.244444 45.511111 105.244445 105.244444 2.844444 59.733333-42.666667 108.088889-105.244445 108.088889zM219.022222 298.666667h56.888889v341.333333h-56.888889zM389.688889 372.622222h56.888889v267.377778h-56.888889zM560.355556 420.977778h56.888888v219.022222h-56.888888z" p-id="10718"></path></svg>