<?xml version="1.0" standalone="no"?><!DOCTYPE svg PUBLIC "-//W3C//DTD SVG 1.1//EN" "http://www.w3.org/Graphics/SVG/1.1/DTD/svg11.dtd"><svg t="1546479352344" class="icon" style="" viewBox="0 0 1024 1024" version="1.1" xmlns="http://www.w3.org/2000/svg" p-id="2164" xmlns:xlink="http://www.w3.org/1999/xlink" width="200" height="200"><defs><style type="text/css"></style></defs><path d="M390.144 825.344C390.144 807.246733 404.811825 792.576 422.910311 792.576L601.745689 792.576C619.842022 792.576 634.512 807.242754 634.512 825.344 634.512 843.441267 619.844175 858.112 601.745689 858.112L422.910311 858.112C404.813978 858.112 390.144 843.445246 390.144 825.344ZM430.08 928.768C430.08 914.62951 441.535791 903.168 455.68 903.168L568.32 903.168C582.45849 903.168 593.92 914.626401 593.92 928.768 593.92 942.90649 582.464209 954.368 568.32 954.368L455.68 954.368C441.54151 954.368 430.08 942.909599 430.08 928.768ZM485.908951 94.718362 485.908951 146.882784C485.908951 161.30196 497.590312 172.98267 512 172.98267 526.412856 172.98267 538.091049 161.297353 538.091049 146.882784L538.091049 94.718362C538.091049 80.299186 526.409688 68.618476 512 68.618476 497.587144 68.618476 485.908951 80.303793 485.908951 94.718362ZM763.640258 188.143904 726.754441 225.02972C716.558544 235.225616 716.559004 251.745096 726.748192 261.934284 736.93962 272.125712 753.460116 272.120674 763.652755 261.928034L800.538573 225.042218C810.734469 214.846321 810.734009 198.326842 800.544821 188.137654 790.353393 177.946226 773.832898 177.951264 763.640258 188.143904ZM893.964114 450.591428 841.799692 450.591428C827.380516 450.591428 815.699805 462.272787 815.699805 476.682476 815.699805 491.095332 827.385123 502.773524 841.799692 502.773524L893.964114 502.773524C908.383289 502.773524 920.064 491.092164 920.064 476.682476 920.064 462.269619 908.378683 450.591428 893.964114 450.591428ZM130.035886 502.773524 182.200308 502.773524C196.619484 502.773524 208.300195 491.092164 208.300195 476.682476 208.300195 462.269619 196.614877 450.591428 182.200308 450.591428L130.035886 450.591428C115.61671 450.591428 103.936 462.272787 103.936 476.682476 103.936 491.095332 115.621317 502.773524 130.035886 502.773524ZM223.461427 225.042218 260.347245 261.928034C270.543141 272.123932 287.06262 272.123472 297.251808 261.934284 307.443237 251.742855 307.438199 235.222359 297.245559 225.02972L260.359742 188.143904C250.163845 177.948006 233.644367 177.948466 223.455179 188.137654 213.26375 198.329083 213.268788 214.849578 223.461427 225.042218ZM512 735.232C370.615105 735.232 256 620.616895 256 479.232 256 337.847105 370.615105 223.232 512 223.232 653.384895 223.232 768 337.847105 768 479.232 768 620.616895 653.384895 735.232 512 735.232ZM512 653.312C608.141729 653.312 686.08 575.373729 686.08 479.232 686.08 383.090271 608.141729 305.152 512 305.152 415.858271 305.152 337.92 383.090271 337.92 479.232 337.92 575.373729 415.858271 653.312 512 653.312Z" p-id="2165"></path></svg>