<?xml version="1.0" standalone="no"?><!DOCTYPE svg PUBLIC "-//W3C//DTD SVG 1.1//EN" "http://www.w3.org/Graphics/SVG/1.1/DTD/svg11.dtd"><svg t="1544081080613" class="icon" style="" viewBox="0 0 1024 1024" version="1.1" xmlns="http://www.w3.org/2000/svg" p-id="1635" xmlns:xlink="http://www.w3.org/1999/xlink" width="200" height="200"><defs><style type="text/css"></style></defs><path d="M928 448 832 448 832 352C832 332.8 819.2 320 800 320 780.8 320 768 332.8 768 352L768 448l-96 0C652.8 448 640 460.8 640 480 640 499.2 652.8 512 672 512L768 512l0 96c0 19.2 12.8 32 32 32 19.2 0 32-12.8 32-32L832 512l96 0C947.2 512 960 499.2 960 480 960 460.8 947.2 448 928 448z" p-id="1636"></path><path d="M768 902.4l-281.6-192L448 691.2l-38.4 25.6-281.6 192L128 128c0-38.4 25.6-64 64-64l512 0c38.4 0 64 25.6 64 64l0 64 64 0L832 128c0-70.4-57.6-128-128-128L192 0C121.6 0 64 57.6 64 128l0 774.4c0 38.4 32 64 64 64 12.8 0 25.6-6.4 38.4-12.8L448 768l281.6 192c12.8 6.4 25.6 12.8 38.4 12.8 32 0 64-25.6 64-64L832 768l-64 0L768 902.4z" p-id="1637"></path><path d="M768 736l0 128c0 19.2 12.8 32 32 32 19.2 0 32-12.8 32-32l0-128c0-19.2-12.8-32-32-32C780.8 704 768 716.8 768 736z" p-id="1638"></path><path d="M768 160l0 64C768 243.2 780.8 256 800 256 819.2 256 832 243.2 832 224l0-64C832 140.8 819.2 128 800 128 780.8 128 768 140.8 768 160z" p-id="1639"></path></svg>