<?xml version="1.0" standalone="no"?><!DOCTYPE svg PUBLIC "-//W3C//DTD SVG 1.1//EN" "http://www.w3.org/Graphics/SVG/1.1/DTD/svg11.dtd"><svg t="1540258226545" class="icon" style="" viewBox="0 0 1024 1024" version="1.1" xmlns="http://www.w3.org/2000/svg" p-id="19741" xmlns:xlink="http://www.w3.org/1999/xlink" width="128" height="128"><defs><style type="text/css"></style></defs><path d="M246.886947 265.698384c0 13.744026-11.142781 24.885783-24.88476 24.885783L100.32494 290.584168c-13.743002 0-24.88476-11.141758-24.88476-24.88476L75.44018 146.142451c0-13.744026 11.142781-24.88476 24.88476-24.88476l121.676224 0c13.744026 0 24.88476 11.142781 24.88476 24.88476L246.885923 265.698384 246.886947 265.698384z" p-id="19742"></path><path d="M945.652608 247.613494c0 24.740474-20.054755 44.795229-44.795229 44.795229L379.774513 292.408723c-24.740474 0-44.795229-20.054755-44.795229-44.795229l0-83.387175c0-24.740474 20.054755-44.795229 44.795229-44.795229l521.082866 0c24.740474 0 44.795229 20.055778 44.795229 44.795229L945.652608 247.613494 945.652608 247.613494 945.652608 247.613494z" p-id="19743"></path><path d="M246.886947 569.30617c0 13.744026-11.142781 24.88476-24.88476 24.88476L100.32494 594.190931c-13.743002 0.001023-24.88476-11.141758-24.88476-24.88476L75.44018 449.752284c0-13.746072 11.142781-24.885783 24.88476-24.885783l121.676224 0c13.744026 0 24.88476 11.142781 24.88476 24.885783L246.885923 569.30617 246.886947 569.30617z" p-id="19744"></path><path d="M945.652608 551.223327c0 24.740474-20.054755 44.795229-44.795229 44.795229L379.774513 596.018555c-24.740474 0-44.795229-20.054755-44.795229-44.795229l0-83.387175c0-24.740474 20.054755-44.795229 44.795229-44.795229l521.082866 0c24.740474 0 44.795229 20.054755 44.795229 44.795229L945.652608 551.223327 945.652608 551.223327 945.652608 551.223327z" p-id="19745"></path><path d="M246.886947 874.907357c0 13.745049-11.142781 24.886807-24.88476 24.886807L100.32494 899.794164c-13.743002 0-24.88476-11.141758-24.88476-24.886807L75.44018 755.35347c0-13.744026 11.142781-24.886807 24.88476-24.886807l121.676224 0c13.744026 0 24.88476 11.143805 24.88476 24.886807L246.885923 874.907357 246.886947 874.907357z" p-id="19746"></path><path d="M945.652608 856.82349c0 24.740474-20.054755 44.795229-44.795229 44.795229L379.774513 901.618719c-24.740474 0-44.795229-20.054755-44.795229-44.795229l0-83.387175c0-24.740474 20.054755-44.795229 44.795229-44.795229l521.082866 0c24.740474 0 44.795229 20.054755 44.795229 44.795229L945.652608 856.82349 945.652608 856.82349 945.652608 856.82349z" p-id="19747"></path></svg>