<?xml version="1.0" standalone="no"?><!DOCTYPE svg PUBLIC "-//W3C//DTD SVG 1.1//EN" "http://www.w3.org/Graphics/SVG/1.1/DTD/svg11.dtd"><svg t="1540256229362" class="icon" style="" viewBox="0 0 1024 1024" version="1.1" xmlns="http://www.w3.org/2000/svg" p-id="4468" xmlns:xlink="http://www.w3.org/1999/xlink" width="48" height="48"><defs><style type="text/css"></style></defs><path d="M801.88 421.65L960 320 512 64 64 320l158.12 101.65L64 512l131.76 84.71L64 672l448 288 448-288-131.76-75.29L960 512z m34.76 253.57L512 883.92l-324.64-208.7 69.11-39.49L512 800l255.53-164.27zM765.58 560.9l-60.7 39L512 723.92l-192.87-124-60.7-39-71.06-45.68 95.46-54.55 71.06 45.68 60.7 39L512 608l97.41-62.62 60.7-39 71.06-45.68 95.46 54.55z" p-id="4469"></path></svg>