<?xml version="1.0" standalone="no"?><!DOCTYPE svg PUBLIC "-//W3C//DTD SVG 1.1//EN" "http://www.w3.org/Graphics/SVG/1.1/DTD/svg11.dtd"><svg t="1525858920818" class="icon" style="" viewBox="0 0 1024 1024" version="1.1" xmlns="http://www.w3.org/2000/svg" p-id="6098" xmlns:xlink="http://www.w3.org/1999/xlink" width="200" height="200"><defs><style type="text/css"></style></defs><path d="M986.386334 446.416306c-19.166525-28.744671-44.135196-46.816259-71.590502-52.198849-6.068206-18.787902-20.967544-33.636075-39.786145-39.622416-9.117658-88.49552-49.947576-170.329317-115.561969-231.195569-68.060095-63.137992-156.698878-97.909937-249.594615-97.909937-92.783173 0-181.350324 34.700313-249.389954 97.715509-65.726957 60.876486-106.648972 142.792147-115.756397 231.389998-18.818601 5.986341-33.728172 20.834514-39.796378 39.622416-27.455305 5.382591-52.423977 23.454178-71.590502 52.198849C11.850909 478.619752 0.021489 521.05626 0.021489 565.907771c0 44.831045 11.82942 87.25732 33.298384 119.470999 19.166525 28.754904 44.135196 46.826492 71.590502 52.219315 7.951089 24.620747 31.077809 42.47744 58.307987 42.47744 33.779338 0 61.244876-27.475771 61.244876-61.244876l0-305.845757c0-25.838482-16.065907-47.982828-38.742373-56.967456 8.65717-77.628008 44.841278-149.32084 102.555747-202.778356 60.446697-55.985082 139.138944-86.817298 221.576491-86.817298 82.529645 0 161.293523 30.893614 221.760686 86.99126 57.622372 53.447283 93.734848 125.068484 102.371552 202.614627-22.666232 8.984628-38.742373 31.118741-38.742373 56.957223l0 305.845757c0 26.370601 16.751522 48.89357 40.164768 57.499575-6.109138 80.30907-57.110719 125.938294-142.045133 125.938294l-64.611553 0c-8.442276-23.740704-31.128975-40.778752-57.724703-40.778752l-101.951997 0c-33.769105 0-61.244876 27.475771-61.244876 61.244876s27.475771 61.244876 61.244876 61.244876L571.026348 983.979518c26.595728 0 49.282427-17.038048 57.724703-40.778752l64.611553 0c107.406219 0 176.233793-63.281255 183.028547-166.440753l0.010233 0c18.163685-6.262634 32.489972-20.844747 38.394449-39.161928 27.455305-5.392824 52.423977-23.464411 71.590502-52.219315 21.468964-32.213679 33.298384-74.639954 33.298384-119.470999C1019.684718 521.05626 1007.855298 478.619752 986.386334 446.416306zM183.53099 718.830649c0 11.205203-9.107425 20.312628-20.312628 20.312628-11.19497 0-20.312628-9.107425-20.312628-20.312628 0-11.2973-9.15859-20.466124-20.466124-20.466124-44.165896 0-81.485873-60.651358-81.485873-132.456754s37.319977-132.456754 81.485873-132.456754c11.307533 0 20.466124-9.168824 20.466124-20.466124 0-11.205203 9.117658-20.312628 20.312628-20.312628 11.205203 0 20.312628 9.107425 20.312628 20.312628L183.53099 718.830649zM571.026348 943.04727l-101.951997 0c-11.205203 0-20.312628-9.107425-20.312628-20.312628s9.107425-20.312628 20.312628-20.312628L571.026348 902.422014c11.19497 0 20.312628 9.107425 20.312628 20.312628S582.221318 943.04727 571.026348 943.04727zM897.266597 698.364525c-11.307533 0-20.466124 9.168824-20.466124 20.466124 0 11.205203-9.117658 20.312628-20.312628 20.312628-11.205203 0-20.312628-9.107425-20.312628-20.312628l0-305.845757c0-11.205203 9.107425-20.312628 20.312628-20.312628 11.19497 0 20.312628 9.107425 20.312628 20.312628 0 11.2973 9.15859 20.466124 20.466124 20.466124 44.165896 0 81.485873 60.651358 81.485873 132.456754S941.432493 698.364525 897.266597 698.364525z" p-id="6099"></path></svg>