<?xml version="1.0" standalone="no"?><!DOCTYPE svg PUBLIC "-//W3C//DTD SVG 1.1//EN" "http://www.w3.org/Graphics/SVG/1.1/DTD/svg11.dtd"><svg t="1533793583811" class="icon" style="" viewBox="0 0 1194 1024" version="1.1" xmlns="http://www.w3.org/2000/svg" p-id="4525" xmlns:xlink="http://www.w3.org/1999/xlink" width="233.203125" height="200"><defs><style type="text/css"></style></defs><path d="M724.48 806.4H123.904c-64.853333 0-117.76-57.344-117.76-128v-491.52c0-70.656 52.736-128 117.76-128h832.341333c64.853333 0 117.76 57.344 117.76 128v171.008c0 14.165333-11.434667 25.6-25.6 25.6s-25.6-11.434667-25.6-25.6V186.88c0-42.325333-29.866667-76.8-66.56-76.8H123.904c-36.693333 0-66.56 34.474667-66.56 76.8v491.52c0 42.325333 29.866667 76.8 66.56 76.8h600.576c14.165333 0 25.6 11.434667 25.6 25.6s-11.434667 25.6-25.6 25.6z" p-id="4526"></path><path d="M539.989333 963.242667c-9.386667 0-17.066667-7.68-17.066666-17.066667v-165.888c0-9.386667 7.68-17.066667 17.066666-17.066667s17.066667 7.68 17.066667 17.066667v165.888c0 9.557333-7.68 17.066667-17.066667 17.066667z" p-id="4527"></path><path d="M829.781333 976.213333H250.197333c-18.773333 0-34.133333-15.36-34.133333-34.133333s15.36-34.133333 34.133333-34.133333h579.584c18.773333 0 34.133333 15.36 34.133334 34.133333s-15.189333 34.133333-34.133334 34.133333z" p-id="4528"></path><path d="M1024.853333 832.341333h-71.168c-13.653333 0-24.917333-9.898667-25.941333-22.357333l-5.632-36.010667c-5.802667-2.901333-11.605333-5.973333-17.066667-9.557333l-36.864 14.506667c-10.410667 3.413333-20.821333 1.194667-27.989333-5.973334l-1.536-1.536-37.205333-64.170666c-5.290667-10.581333-3.413333-22.016 5.12-30.378667l0.682666-0.682667 30.037334-24.064c-0.341333-3.413333-0.341333-6.997333-0.341334-10.410666 0-3.754667 0.341333-6.997333 0.682667-9.728L807.424 609.28l-0.853333-0.853333c-5.802667-5.802667-9.386667-13.482667-9.386667-20.650667 0-4.266667 1.194667-8.362667 3.584-11.605333l36.181333-62.293334 1.706667-1.536c10.922667-10.752 22.186667-10.069333 29.696-7.509333l1.194667 0.341333 34.304 13.994667c5.290667-3.584 10.752-7.168 16.725333-10.24l5.632-37.034667c1.194667-12.8 14.165333-22.357333 25.941333-22.357333h71.168c7.850667 0 15.701333 3.925333 20.309334 10.410667 3.242667 4.608 4.778667 10.069333 4.266666 15.530666l5.290667 33.962667c5.802667 2.901333 11.605333 5.973333 17.066667 9.557333l36.864-14.506666c10.24-3.413333 20.650667-1.194667 27.818666 5.632l1.706667 1.706666 37.205333 64.170667c5.461333 10.581333 3.584 22.016-4.949333 30.549333l-0.682667 0.682667-30.037333 24.064c0.341333 3.413333 0.341333 6.997333 0.341333 10.581333 0 3.584-0.341333 6.656-0.682666 9.216l31.744 21.845334c4.608 2.730667 8.021333 6.997333 9.728 12.117333 2.218667 6.485333 1.536 14.165333-1.706667 20.48l-0.512 0.853333-35.328 60.928c-5.973333 11.093333-20.650667 16.042667-32.256 10.922667l-35.498667-13.994667c-5.461333 3.584-11.264 6.656-17.066666 9.557334l-5.632 36.010666c-1.706667 13.141333-14.677333 22.528-26.453334 22.528z m-64.341333-34.133333h57.514667l7.338666-46.933333 8.192-4.096c10.069333-4.949333 19.626667-9.728 26.965334-15.530667l7.68-6.144 46.933333 18.432 27.818667-47.786667-40.96-27.989333v-9.045333c0-3.754667 0.512-7.168 1.024-10.24 0.341333-2.730667 0.853333-4.949333 0.853333-7.338667 0-6.144 0-9.557333-0.853333-11.946667l-3.925334-11.434666 40.618667-32.426667-27.136-46.933333-47.786667 18.773333-7.68-5.973333c-7.338667-5.802667-16.896-10.410667-26.794666-15.36l-8.362667-4.096-7.68-48.64h-55.466667l-7.509333 50.176-10.069333 3.242666c-6.144 2.048-12.458667 6.314667-19.626667 11.093334-2.218667 1.536-4.266667 2.901333-6.656 4.437333l-7.509333 4.949333-45.568-18.773333-27.648 47.786667 38.741333 29.184v8.533333c0 3.754667-0.512 7.168-1.024 10.069333-0.341333 2.730667-0.853333 4.949333-0.853333 7.338667 0 6.144 0 9.557333 0.853333 12.117333l3.754667 11.264-40.618667 32.426667 27.306667 46.933333 47.786666-18.773333 7.68 6.144c7.509333 5.973333 17.066667 10.581333 27.136 15.701333l8.021334 3.925334 7.509333 46.933333z m26.965333-77.994667c-43.008 0-79.36-35.84-79.36-78.336s36.352-78.336 79.36-78.336 79.36 35.84 79.36 78.336c0 42.325333-36.352 78.336-79.36 78.336z m0-122.709333c-24.405333 0-45.226667 20.309333-45.226666 44.202667 0 24.064 20.650667 44.202667 45.226666 44.202666s45.226667-20.309333 45.226667-44.202666c0-23.893333-20.650667-44.202667-45.226667-44.202667z" p-id="4529"></path></svg>